<svg id="Layer_1" data-name="Layer 1" xmlns="http://www.w3.org/2000/svg" xmlns:xlink="http://www.w3.org/1999/xlink" viewBox="0 0 561 256.95"><defs><style>.cls-1{fill:none;}.cls-2{clip-path:url(#clip-path);}.cls-3{clip-path:url(#clip-path-2);}.cls-4{font-size:26.44px;font-family:Montserrat-Medium, Montserrat;font-weight:500;}.cls-15,.cls-4{fill:#000001;}.cls-5{letter-spacing:0.1em;}.cls-6{letter-spacing:0.1em;}.cls-7{letter-spacing:0.1em;}.cls-8{letter-spacing:0.09em;}.cls-9{letter-spacing:0.06em;}.cls-10{clip-path:url(#clip-path-3);}.cls-11{fill:#fff;}.cls-12{opacity:0.18;}.cls-13{clip-path:url(#clip-path-4);}.cls-14{clip-path:url(#clip-path-5);}.cls-16{fill:#223670;}.cls-17{fill:#cd2026;}.cls-18{fill:#161f2a;}.cls-19{fill:#323033;}</style><clipPath id="clip-path" transform="translate(-30 -267.53)"><rect class="cls-1" x="30" y="267.53" width="552" height="256.95"/></clipPath><clipPath id="clip-path-2" transform="translate(-30 -267.53)"><rect class="cls-1" x="30" y="267.52" width="552" height="256.95"/></clipPath><clipPath id="clip-path-3" transform="translate(-30 -267.53)"><rect class="cls-1" x="30" y="267.53" width="547.27" height="207.12"/></clipPath><clipPath id="clip-path-4" transform="translate(-30 -267.53)"><rect class="cls-1" x="39.16" y="288.71" width="254.03" height="176.06"/></clipPath><clipPath id="clip-path-5" transform="translate(-30 -267.53)"><rect class="cls-1" x="39.16" y="288.71" width="254.03" height="176.05"/></clipPath></defs><g class="cls-2"><g class="cls-3"><text class="cls-4" transform="translate(21.03 250)"><tspan class="cls-5">E</tspan><tspan class="cls-6" x="20.36" y="0">N</tspan><tspan class="cls-7" x="44.45" y="0">G</tspan><tspan class="cls-6" x="67.51" y="0">I</tspan><tspan class="cls-7" x="78.32" y="0">N</tspan><tspan class="cls-6" x="102.44" y="0">E</tspan><tspan class="cls-5" x="122.77" y="0">ERI</tspan><tspan class="cls-6" x="175.84" y="0">N</tspan><tspan class="cls-7" x="199.93" y="0">G TRANS</tspan><tspan class="cls-8" x="337.96" y="0">F</tspan><tspan class="cls-7" x="357.19" y="0">ORM</tspan><tspan class="cls-9" x="431.81" y="0">A</tspan><tspan class="cls-7" x="452.88" y="0">TIO</tspan><tspan x="506.75" y="0">N</tspan></text></g><g class="cls-10"><path class="cls-11" d="M312.16,371.09c0,57.2-63.17,103.55-141.08,103.55S30,428.29,30,371.09,93.16,267.53,171.08,267.53s141.08,46.36,141.08,103.56" transform="translate(-30 -267.53)"/><g class="cls-12"><g class="cls-13"><g class="cls-14"><path class="cls-15" d="M50.83,414.33,123,378.1s-16.62-45,30.75-62.78c73.26-27.55,125.9,23.54,125.9,23.54s-44.21-54.92-117.36-49.81S54.11,334.11,45.53,354.55c-6.72,16-9,30.25-2.44,45.69a68.25,68.25,0,0,0,7.74,14.09" transform="translate(-30 -267.53)"/><path class="cls-15" d="M281.69,339.78l-72.34,35.85s16.39,45-31.07,62.62c-73.4,27.17-125.77-24.18-125.77-24.18s43.93,55.14,117.09,50.41S278,420,286.69,399.57c6.8-16,9.18-30.19,2.67-45.69a67.83,67.83,0,0,0-7.67-14.1" transform="translate(-30 -267.53)"/></g></g></g><path class="cls-16" d="M57.6,403l72.17-36.23S113.15,321.83,160.52,304c73.26-27.54,125.9,23.54,125.9,23.54s-44.22-54.92-117.36-49.81S60.89,322.8,52.31,343.24c-6.72,16-9,30.25-2.44,45.69A68.61,68.61,0,0,0,57.6,403" transform="translate(-30 -267.53)"/><path class="cls-17" d="M288.47,328.45l-72.35,35.87s16.39,45.05-31.06,62.62c-73.4,27.18-125.78-24.18-125.78-24.18s43.94,55.14,117.1,50.41,108.4-44.52,117.08-64.91c6.81-16,9.18-30.2,2.68-45.69a68.45,68.45,0,0,0-7.67-14.12" transform="translate(-30 -267.53)"/><path class="cls-18" d="M143.53,376.1h5.11v-8.43l4.57,6.89a3.11,3.11,0,0,0,3.94,1.2s1.6-.3,1.64-3,0-17.81,0-17.81h-5.46V365.3l-4.3-9.18a3.2,3.2,0,0,0-3.7-1.21c-1.71.7-1.8,3-1.8,3Z" transform="translate(-30 -267.53)"/><path class="cls-18" d="M166.75,367.75l3,2.88,5.46-4.85a10.3,10.3,0,0,0-7.14-4.92A7.62,7.62,0,0,0,160,367.3c-1.19,4.3,3.71,8.57,6.17,8.7l16.14,0s6-1,5.1-6c-.76-4-6.41-6.61-6.37-8.09s.38-2,2.59-2.05,7.79,0,7.79,0V376.1h5V359.8h5.74V355H180.59s-5.81.6-5.36,5.89,5.48,7.21,6.26,8.59a1.41,1.41,0,0,1-1.24,2.3c-1.14,0-12.38,0-12.38,0s-3.65-.16-3.25-3.57,4.1-3.78,4.68-3c.41.51-2.55,2.62-2.55,2.62" transform="translate(-30 -267.53)"/><path class="cls-16" d="M393,281.82v43.52l-22.3-38.61a13.31,13.31,0,0,0-.74-1.2,8.47,8.47,0,0,0-2.11-2.07,5.27,5.27,0,0,0-1.42-.82,9,9,0,0,0-2.89-.82,6.93,6.93,0,0,0-.91,0,6.78,6.78,0,0,0-.9,0,9.09,9.09,0,0,0-8.07,8.07,6.78,6.78,0,0,0,0,.9,6.85,6.85,0,0,0,0,.91v62.12h14.19V310.25l22.43,38.83c.14.25.31.51.44.77a9,9,0,0,0,2.28,2.29,7.24,7.24,0,0,0,1.43.86h0a9.17,9.17,0,0,0,3.76.82,9,9,0,0,0,9-9v-63Z" transform="translate(-30 -267.53)"/><path class="cls-16" d="M512.51,321.31a19,19,0,0,1,3.75,21.36C513.11,349.4,507,352.81,500,353.8c-.21,0-24.75,0-38.51,0l16.09-14.37H494c4.57,0,7.63-5.56,4.1-9.06,0,0-15.7-15.7-16.13-16.17a1.07,1.07,0,0,0-.3-.3c-9.93-12.17-1-31.23,14.71-31.23h33L513.28,297H501.07c-4.53,0-7.42,6.39-3.49,9.32Z" transform="translate(-30 -267.53)"/><path class="cls-16" d="M443.17,339.45h26.36l-16.09,14.37h-9.1a26.26,26.26,0,0,1-22-12.17,13.58,13.58,0,0,1-1.25-2.2,25.56,25.56,0,0,1-2.76-11.6,26.07,26.07,0,0,1,26-26,25.47,25.47,0,0,1,17.25,6.65,25,25,0,0,1,7.72,12.3l-14.49,12.16-1.08.95-2.24,1.89-10.18-10.17,8.75-7.38.35-.3a11.37,11.37,0,0,0-6.08-1.73,11.79,11.79,0,0,0-11.27,8.67c-1.63,6.3,3,14.58,10.1,14.58" transform="translate(-30 -267.53)"/><polygon class="cls-16" points="547.26 14.94 547.26 29.31 526.34 29.31 526.34 86.29 511.98 86.29 511.98 29.31 491.32 29.31 507.41 14.94 547.26 14.94"/><path class="cls-19" d="M370.61,379.79c11.31,0,16.49,6.86,16.49,18.07v36.63c0,11.1-5.18,18-16.49,18h-17V379.79Zm-.11,65.28c5.81,0,8.61-3.63,8.61-10.27V397.43c0-6.64-2.8-10.26-8.71-10.26h-8.72v57.9Z" transform="translate(-30 -267.53)"/><rect class="cls-19" x="364.69" y="112.27" width="8.09" height="72.64"/><path class="cls-19" d="M443.16,397.34v6.22h-7.68v-6.64c0-6.54-2.6-10.49-8.51-10.49s-8.52,3.95-8.52,10.49v38.4c0,6.54,2.71,10.48,8.52,10.48s8.51-3.94,8.51-10.48V420.78H428v-7.26h15.16V434.9c0,11-5.19,18.27-16.4,18.27s-16.29-7.27-16.29-18.27V397.34c0-11,5.19-18.27,16.29-18.27s16.4,7.27,16.4,18.27" transform="translate(-30 -267.53)"/><rect class="cls-19" x="420.84" y="112.27" width="8.1" height="72.64"/><polygon class="cls-19" points="447.83 184.91 447.83 119.63 434.44 119.63 434.44 112.27 469.31 112.27 469.31 119.63 455.92 119.63 455.92 184.91 447.83 184.91"/><path class="cls-19" d="M509.18,437.81l-2.8,14.63h-7.47l13.9-72.64h11.73l13.9,72.64h-8.09l-2.81-14.63Zm1-6.95h16.2l-8.21-41.93Z" transform="translate(-30 -267.53)"/><polygon class="cls-19" points="518.42 184.91 518.42 112.27 526.51 112.27 526.51 177.54 547.26 177.54 547.26 184.91 518.42 184.91"/></g></g><rect class="cls-1" x="9" width="552" height="256.95"/></svg>