<svg version="1.1" id="Layer_2_1_" xmlns="http://www.w3.org/2000/svg" x="0" y="0" viewBox="0 0 1593.9 509.2" xml:space="preserve"><style>.st0{enable-background:new}.st1{fill:#6c63ff}.st2{fill:none;stroke:#fff;stroke-width:5.68}</style><g class="st0"><path class="st1" d="M26.6 274.3l3.1-3.1H164l3.1 3.1-3.8 31.8-3.4 3.1h-44.1v115.9l-3.1 3.1H81.1l-3.4-3.1V309.3H33.8l-3.4-3.1-3.8-31.9zM200.8 407.9V291.3l22.4-22.4H326l22.4 22.4v116.5L326 430.3H223.2l-22.4-22.4zm45.4-11.2h56.7l7.4-7.4V310l-7.4-7.4h-56.7l-7.4 7.4v79.3l7.4 7.4zM521.9 273.4l3.6-2.2h31.2l3.1 3.1v150.6l-3.1 3.1h-31.8l-3.1-3.1V333l-47.3 59.2-47.6-59.2v91.9l-3.1 3.1H392l-3.1-3.1V274.3l3.1-3.1h31.4l3.6 2.2 47.7 63.2 47.2-63.2zM600.1 407.9V291.3l22.4-22.4h102.9l22.4 22.4v116.5l-22.4 22.4H622.5l-22.4-22.3zm45.5-11.2h56.7l7.4-7.4V310l-7.4-7.4h-56.7l-7.4 7.4v79.3l7.4 7.4zM788.1 424.9V274.3l3.1-3.1h122.1l22.4 22.4V333l-22 22.9v1.3l22 22.6v45l-3.1 3.1h-31.8l-3.1-3.1V381l-8.3-8.5h-63.2v52.4l-3.1 3.1h-31.8l-3.2-3.1zm101.5-86l8.1-8.5v-18.2l-7.4-7.4h-64.1v34.1h63.4zM976.1 424.9V274.3l3.1-3.1h122.1l22.4 22.4V333l-22 22.9v1.3l22 22.6v45l-3.1 3.1h-31.8l-3.1-3.1V381l-8.3-8.5h-63.2v52.4l-3.1 3.1h-31.8l-3.2-3.1zm101.5-86l8.1-8.5v-18.2l-7.4-7.4h-64.1v34.1h63.4zM1164.1 407.9V291.3l22.4-22.4h102.9l22.4 22.4v116.5l-22.4 22.4h-102.9l-22.4-22.3zm45.5-11.2h56.7l7.4-7.4V310l-7.4-7.4h-56.7l-7.4 7.4v79.3l7.4 7.4zM1390 425.8l-3.6 2.2h-31.2l-3.1-3.1V274.3l3.1-3.1h31.8l3.1 3.1v91.9l47.5-59.2 47.3 59.2v-91.9l3.1-3.1h31.8l3.1 3.1v150.6l-3.1 3.1h-31.4l-3.6-2.2-47.5-63.2-47.3 63.2z"/></g><g class="st0"><path class="st2" d="M203.7 44.6v171l-3.6 3.6H164l-3.6-3.6v-66.7H69v66.7l-3.6 3.6H29.3l-3.6-3.6v-171l3.6-3.6h36.1l3.6 3.6V111h91.4V44.6L164 41h36.1l3.6 3.6zM249.5 215.6V66.5L274.9 41h116.8l25.5 25.5v149.1l-3.6 3.6h-36.1l-3.6-3.6V156h-81.2v59.6l-3.6 3.6H253l-3.5-3.6zm124.4-97.7V87.6l-8.4-8.4h-64.1l-8.7 8.4v30.3h81.2zM630.7 66.5v32.8l-3.6 3.6H591l-3.6-3.6V87.9l-8.7-8.7h-64.1l-8.4 8.4v85l8.4 8.4h64.1l8.7-8.7v-11.5l3.6-3.6h36.1l3.6 3.6v32.8l-25.5 25.5H488.5L463 193.7V66.5L488.5 41h116.8l25.4 25.5zM770.7 156.1h-52.2v59.6l-3.6 3.6h-36.1l-3.6-3.6v-171l3.6-3.6H715l3.6 3.6V118h52.2l29-22.4V43.3l3.6-3.6h36.1l3.6 3.6v67.2l-36.4 26.2v1.3l36.4 26v51.7l-3.6 3.6h-36.1l-3.6-3.6v-36.9l-29.1-22.7z"/></g><g class="st0"><path class="st2" d="M987.8 44.6l3.6-3.6h143.5l3.8 3.6-4.6 31.1-3.8 3.6H1031v32.1h82.2l3.6 3.6-4.3 30.8-3.8 3.6h-77.6v66.4l-3.6 3.6h-36.1l-3.6-3.6V44.6z"/></g><g class="st0"><path class="st2" d="M1176.2 196.3V63.9l25.5-25.5h116.8l25.5 25.5v132.3l-25.5 25.5h-116.8l-25.5-25.4zm51.7-12.8h64.4l8.4-8.4v-90l-8.4-8.4h-64.4l-8.4 8.4v90.1l8.4 8.3zM1389.7 215.6v-171l3.6-3.6H1532l25.5 25.5v44.8l-24.9 26v1.5l24.9 25.7v51.2l-3.6 3.6h-36.1l-3.6-3.6v-49.9l-9.4-9.7H1433v59.6l-3.6 3.6h-36.1l-3.6-3.7zm115.3-97.7l9.2-9.7V87.6l-8.4-8.4H1433v38.7h72z"/></g></svg>