<?xml version="1.0" encoding="utf-8"?>
<!-- Generator: Adobe Illustrator 24.1.1, SVG Export Plug-In . SVG Version: 6.00 Build 0)  -->
<svg version="1.1" id="Layer_2_1_" xmlns="http://www.w3.org/2000/svg" xmlns:xlink="http://www.w3.org/1999/xlink" x="0px" y="0px"
	 viewBox="0 0 1593.9 509.2" style="enable-background:new 0 0 1593.9 509.2;" xml:space="preserve">
<style type="text/css">
	.st0{enable-background:new    ;}
	.st1{fill:#6C63FF;}
	.st2{fill:none;stroke:#FFFFFF;stroke-width:5.68;}
</style>
<g class="st0">
	<path class="st1" d="M26.6,274.3l3.1-3.1H164l3.1,3.1l-3.8,31.8l-3.4,3.1h-44.1v115.9l-3.1,3.1H81.1l-3.4-3.1V309.3H33.8l-3.4-3.1
		L26.6,274.3z"/>
	<path class="st1" d="M200.8,407.9V291.3l22.4-22.4H326l22.4,22.4v116.5L326,430.3H223.2L200.8,407.9z M246.2,396.7h56.7l7.4-7.4
		v-79.3l-7.4-7.4h-56.7l-7.4,7.4v79.3L246.2,396.7z"/>
	<path class="st1" d="M521.9,273.4l3.6-2.2h31.2l3.1,3.1v150.6l-3.1,3.1h-31.8l-3.1-3.1V333l-47.3,59.2L426.9,333v91.9l-3.1,3.1
		h-31.8l-3.1-3.1V274.3l3.1-3.1h31.4l3.6,2.2l47.7,63.2L521.9,273.4z"/>
	<path class="st1" d="M600.1,407.9V291.3l22.4-22.4h102.9l22.4,22.4v116.5l-22.4,22.4H622.5L600.1,407.9z M645.6,396.7h56.7l7.4-7.4
		v-79.3l-7.4-7.4h-56.7l-7.4,7.4v79.3L645.6,396.7z"/>
	<path class="st1" d="M788.1,424.9V274.3l3.1-3.1h122.1l22.4,22.4V333l-22,22.9v1.3l22,22.6v45l-3.1,3.1h-31.8l-3.1-3.1V381
		l-8.3-8.5h-63.2v52.4l-3.1,3.1h-31.8L788.1,424.9z M889.6,338.9l8.1-8.5v-18.2l-7.4-7.4h-64.1v34.1H889.6z"/>
	<path class="st1" d="M976.1,424.9V274.3l3.1-3.1h122.1l22.4,22.4V333l-22,22.9v1.3l22,22.6v45l-3.1,3.1h-31.8l-3.1-3.1V381
		l-8.3-8.5h-63.2v52.4l-3.1,3.1h-31.8L976.1,424.9z M1077.6,338.9l8.1-8.5v-18.2l-7.4-7.4h-64.1v34.1H1077.6z"/>
	<path class="st1" d="M1164.1,407.9V291.3l22.4-22.4h102.9l22.4,22.4v116.5l-22.4,22.4h-102.9L1164.1,407.9z M1209.6,396.7h56.7
		l7.4-7.4v-79.3l-7.4-7.4h-56.7l-7.4,7.4v79.3L1209.6,396.7z"/>
	<path class="st1" d="M1390,425.8l-3.6,2.2h-31.2l-3.1-3.1V274.3l3.1-3.1h31.8l3.1,3.1v91.9l47.5-59.2l47.3,59.2v-91.9l3.1-3.1h31.8
		l3.1,3.1v150.6l-3.1,3.1h-31.4l-3.6-2.2l-47.5-63.2L1390,425.8z"/>
</g>
<g class="st0">
	<path class="st2" d="M203.7,44.6v171l-3.6,3.6h-36.1l-3.6-3.6v-66.7H69v66.7l-3.6,3.6H29.3l-3.6-3.6v-171l3.6-3.6h36.1l3.6,3.6V111
		h91.4V44.6l3.6-3.6h36.1L203.7,44.6z"/>
	<path class="st2" d="M249.5,215.6V66.5L274.9,41h116.8l25.5,25.5v149.1l-3.6,3.6h-36.1l-3.6-3.6v-59.6h-81.2v59.6l-3.6,3.6H253
		L249.5,215.6z M373.9,117.9V87.6l-8.4-8.4h-64.1l-8.7,8.4v30.3H373.9z"/>
	<path class="st2" d="M630.7,66.5v32.8l-3.6,3.6H591l-3.6-3.6V87.9l-8.7-8.7h-64.1l-8.4,8.4v85l8.4,8.4h64.1l8.7-8.7v-11.5l3.6-3.6
		h36.1l3.6,3.6v32.8l-25.5,25.5H488.5L463,193.7V66.5L488.5,41h116.8L630.7,66.5z"/>
	<path class="st2" d="M770.7,156.1h-52.2v59.6l-3.6,3.6h-36.1l-3.6-3.6v-171l3.6-3.6H715l3.6,3.6v73.3h52.2l29-22.4V43.3l3.6-3.6
		h36.1l3.6,3.6v67.2l-36.4,26.2v1.3l36.4,26v51.7l-3.6,3.6h-36.1l-3.6-3.6v-36.9L770.7,156.1z"/>
</g>
<g class="st0">
	<path class="st2" d="M987.8,44.6l3.6-3.6h143.5l3.8,3.6l-4.6,31.1l-3.8,3.6h-99.3v32.1h82.2l3.6,3.6l-4.3,30.8l-3.8,3.6h-77.6v66.4
		l-3.6,3.6h-36.1l-3.6-3.6V44.6z"/>
</g>
<g class="st0">
	<path class="st2" d="M1176.2,196.3V63.9l25.5-25.5h116.8l25.5,25.5v132.3l-25.5,25.5h-116.8L1176.2,196.3z M1227.9,183.5h64.4
		l8.4-8.4V85.1l-8.4-8.4h-64.4l-8.4,8.4v90.1L1227.9,183.5z"/>
	<path class="st2" d="M1389.7,215.6v-171l3.6-3.6H1532l25.5,25.5v44.8l-24.9,26v1.5l24.9,25.7v51.2l-3.6,3.6h-36.1l-3.6-3.6v-49.9
		l-9.4-9.7H1433v59.6l-3.6,3.6h-36.1L1389.7,215.6z M1505,117.9l9.2-9.7V87.6l-8.4-8.4H1433v38.7H1505z"/>
</g>
</svg>
