<svg width="977" height="846" viewBox="0 0 977 846" fill="none" xmlns="http://www.w3.org/2000/svg">
<g clip-path="url(#clip0_152:3)">
<path d="M946.518 363.382C902.96 419.099 820.769 431.858 752.763 412.452C730.511 405.947 709.044 397.008 688.751 385.797C676.964 379.394 665.459 372.371 654.189 364.887C651.416 363.053 648.643 361.192 645.899 359.293C644.028 358.014 642.164 356.72 640.306 355.41C617.032 339.031 594.671 321.064 572.685 303.2C517.8 258.605 461.412 212.638 393.979 191.361C380.086 186.98 362.114 184.93 353.523 196.702C346.069 206.922 350.619 221.392 356.926 232.355C380.322 272.962 422.789 298.602 465.294 318.318C507.799 338.034 552.823 354.009 589.773 382.836C626.723 411.662 654.932 457.479 647.374 503.728C640.86 543.583 608.328 575.964 570.504 590.077C532.68 604.18 490.495 602.215 451.176 593.057C411.857 583.89 374.531 567.897 336.585 554.114C313.706 545.793 283.797 540.039 268.616 559.078C255.795 575.165 263.164 600.541 278.777 613.93C294.39 627.319 315.521 631.803 335.682 635.828C398.284 648.332 460.886 660.834 523.487 673.333C542.69 677.159 562.345 681.164 579.076 691.356C595.808 701.539 609.306 719.328 608.827 738.912C608.347 758.215 594.219 775.27 576.905 783.817C559.601 792.354 539.617 793.67 520.338 792.749C448.093 789.289 240.972 674.48 191.295 659.803C159.374 650.382 124.473 636.542 111.012 606.098C94.2528 568.198 121.832 522.344 159.477 505.035C197.113 487.716 240.746 491.552 281.766 497.381C322.786 503.211 365.16 510.629 405.09 499.553C445.019 488.478 481.602 452.373 477.664 411.117C474.233 375.22 441.908 348.17 407.89 336.248C381.261 326.912 352.931 324.373 324.958 320.17C317.193 319.014 309.458 317.716 301.797 316.118C282.178 312.007 263.04 305.862 244.694 297.784C225.442 289.325 207.152 278.826 190.139 266.466C176.569 256.622 163.887 245.607 152.24 233.549C150.463 231.706 148.705 229.822 146.966 227.898C145.312 226.055 143.676 224.175 142.079 222.257C121.286 197.407 105.927 166.803 110.533 135.269C115.129 103.819 139.635 77.6337 168.811 65.0536C185.674 57.7858 203.862 54.5327 222.276 54.0626C235.74 53.7934 249.201 54.7628 262.487 56.9584C323.971 66.793 380.312 96.673 433.523 129.026C486.725 161.378 538.574 196.89 596.409 219.953C654.245 243.026 720.081 252.795 778.753 231.932C837.425 211.078 885.626 154.176 882.76 91.9625C921.674 125.481 954.742 167.612 969.387 216.841C984.032 266.071 978.147 322.916 946.518 363.382Z" fill="#3F3D56"/>
<path d="M666.134 299.086C669.912 299.086 672.975 296.023 672.975 292.244C672.975 288.465 669.912 285.401 666.134 285.401C662.356 285.401 659.293 288.465 659.293 292.244C659.293 296.023 662.356 299.086 666.134 299.086Z" fill="#6C63FF"/>
<path d="M907.704 212.563C913.546 212.563 918.281 207.826 918.281 201.983C918.281 196.141 913.546 191.404 907.704 191.404C901.863 191.404 897.128 196.141 897.128 201.983C897.128 207.826 901.863 212.563 907.704 212.563Z" fill="#FF6584"/>
<path d="M214.012 538.727C216.17 538.727 217.92 536.977 217.92 534.818C217.92 532.659 216.17 530.909 214.012 530.909C211.853 530.909 210.104 532.659 210.104 534.818C210.104 536.977 211.853 538.727 214.012 538.727Z" fill="#FF6584"/>
<path d="M326.18 310.11C326.182 313.501 325.772 316.879 324.958 320.17C317.193 319.014 309.458 317.716 301.797 316.118C282.178 312.006 263.04 305.862 244.694 297.784C247.644 288.256 253.912 280.102 262.36 274.802C270.808 269.502 280.876 267.408 290.736 268.899C300.596 270.391 309.594 275.369 316.097 282.93C322.601 290.492 326.178 300.135 326.18 310.11Z" fill="#FF6584"/>
<path d="M840.027 274.617C842.234 274.617 844.024 272.827 844.024 270.619C844.024 268.411 842.234 266.621 840.027 266.621C837.82 266.621 836.03 268.411 836.03 270.619C836.03 272.827 837.82 274.617 840.027 274.617Z" fill="#F0F0F0"/>
<path d="M474.381 714.635C476.589 714.635 478.378 712.845 478.378 710.638C478.378 708.43 476.589 706.64 474.381 706.64C472.174 706.64 470.385 708.43 470.385 710.638C470.385 712.845 472.174 714.635 474.381 714.635Z" fill="#F0F0F0"/>
<path d="M531.719 770.108C533.927 770.108 535.716 768.318 535.716 766.11C535.716 763.902 533.927 762.112 531.719 762.112C529.512 762.112 527.723 763.902 527.723 766.11C527.723 768.318 529.512 770.108 531.719 770.108Z" fill="#F0F0F0"/>
<path d="M177.353 612.152C179.561 612.152 181.35 610.362 181.35 608.155C181.35 605.947 179.561 604.157 177.353 604.157C175.146 604.157 173.357 605.947 173.357 608.155C173.357 610.362 175.146 612.152 177.353 612.152Z" fill="#F0F0F0"/>
<path d="M373.806 537.876C376.013 537.876 377.802 536.086 377.802 533.878C377.802 531.67 376.013 529.88 373.806 529.88C371.598 529.88 369.809 531.67 369.809 533.878C369.809 536.086 371.598 537.876 373.806 537.876Z" fill="#F0F0F0"/>
<path d="M354.066 141.107C356.274 141.107 358.063 139.317 358.063 137.109C358.063 134.901 356.274 133.111 354.066 133.111C351.859 133.111 350.07 134.901 350.07 137.109C350.07 139.317 351.859 141.107 354.066 141.107Z" fill="#F0F0F0"/>
<path d="M595.637 454.197C597.844 454.197 599.633 452.407 599.633 450.199C599.633 447.991 597.844 446.201 595.637 446.201C593.429 446.201 591.64 447.991 591.64 450.199C591.64 452.407 593.429 454.197 595.637 454.197Z" fill="#F0F0F0"/>
<path d="M625.715 523.772C627.923 523.772 629.712 521.983 629.712 519.775C629.712 517.567 627.923 515.777 625.715 515.777C623.508 515.777 621.719 517.567 621.719 519.775C621.719 521.983 623.508 523.772 625.715 523.772Z" fill="#F0F0F0"/>
<path d="M265.458 149.87C265.487 170.055 260.719 189.958 251.547 207.937C250.334 210.307 249.049 212.635 247.693 214.923C234.26 237.613 214.164 255.61 190.139 266.465C176.569 256.621 163.887 245.607 152.24 233.549C150.463 231.706 148.705 229.822 146.966 227.898C145.312 226.055 143.676 224.175 142.078 222.257C121.286 197.407 105.927 166.803 110.533 135.268C115.129 103.818 139.635 77.6334 168.811 65.0533C185.674 57.7855 203.862 54.5324 222.276 54.0623C236.674 66.7806 248.024 82.5782 255.485 100.283C256.425 102.511 257.29 104.768 258.107 107.053C262.986 120.8 265.472 135.282 265.458 149.87Z" fill="#6C63FF"/>
<path d="M323.735 156.451C323.735 176.036 304.617 194.201 269.895 207.618C262.948 210.307 255.513 212.742 247.693 214.923C218.422 223.084 183.587 227.606 146.966 227.898C145.312 226.055 143.676 224.175 142.078 222.257C142.473 222.266 142.868 222.266 143.263 222.266C183.033 222.266 220.763 217.226 251.547 207.937C257.233 206.217 262.685 204.355 267.864 202.352C299.785 190.026 318.096 173.29 318.096 156.451C318.096 139.612 299.785 122.886 267.864 110.55C264.706 109.328 261.454 108.162 258.107 107.053C257.29 104.768 256.425 102.511 255.485 100.283C260.485 101.844 265.289 103.511 269.895 105.285C304.617 118.702 323.735 136.876 323.735 156.451Z" fill="#E4E4E4"/>
<path d="M149.154 86.5743C151.362 86.5743 153.151 84.7844 153.151 82.5765C153.151 80.3686 151.362 78.5788 149.154 78.5788C146.947 78.5788 145.158 80.3686 145.158 82.5765C145.158 84.7844 146.947 86.5743 149.154 86.5743Z" fill="#F0F0F0"/>
<path d="M232.811 111.96C235.018 111.96 236.808 110.17 236.808 107.962C236.808 105.754 235.018 103.964 232.811 103.964C230.604 103.964 228.814 105.754 228.814 107.962C228.814 110.17 230.604 111.96 232.811 111.96Z" fill="#F0F0F0"/>
<path d="M189.573 187.268C211.038 187.268 228.439 169.862 228.439 148.391C228.439 126.921 211.038 109.515 189.573 109.515C168.108 109.515 150.707 126.921 150.707 148.391C150.707 169.862 168.108 187.268 189.573 187.268Z" fill="#F0F0F0"/>
<path opacity="0.3" d="M907.33 354.149C898.607 356.726 879.376 358.625 858.227 359.791C837.087 360.947 813.898 361.455 791 361.944C750.921 362.809 710.844 363.677 670.77 364.548C665.262 364.67 659.735 364.783 654.189 364.887C651.416 363.053 648.643 361.192 645.899 359.292C650.815 359.321 655.731 359.292 660.609 359.198C681.448 358.785 699.091 357.158 719.187 356.387C750.112 355.193 783.5 356.133 815.731 356.613C847.962 357.102 884.686 356.923 907.33 354.149Z" fill="#F0F0F0"/>
<path opacity="0.3" d="M292.191 650.533L164.431 544.072L288.548 654.797C288.788 655.202 289.122 655.544 289.521 655.794C289.919 656.045 290.372 656.196 290.841 656.237C291.31 656.277 291.782 656.205 292.218 656.026C292.654 655.848 293.04 655.568 293.346 655.21C293.652 654.852 293.868 654.426 293.977 653.967C294.085 653.509 294.083 653.032 293.97 652.574C293.857 652.117 293.637 651.694 293.328 651.339C293.018 650.983 292.629 650.707 292.191 650.533H292.191Z" fill="#F0F0F0"/>
<path d="M195.213 247.35C197.42 247.35 199.209 245.561 199.209 243.353C199.209 241.145 197.42 239.355 195.213 239.355C193.005 239.355 191.216 241.145 191.216 243.353C191.216 245.561 193.005 247.35 195.213 247.35Z" fill="#F0F0F0"/>
<path opacity="0.1" d="M531.662 307.306L537.135 311.412L539.871 292.252L531.662 307.306Z" fill="black"/>
<path opacity="0.1" d="M417.425 290.93L418.676 307.881L458.371 328.722L423.065 305.034L417.425 290.93Z" fill="black"/>
<path opacity="0.1" d="M416.671 342.09L462.543 362.386L415.396 353.17L416.671 342.09Z" fill="black"/>
</g>
<path d="M636.298 415.414L655.313 413.177L662.024 471.341L679.16 551.662C681.543 552.823 683.487 554.722 684.703 557.078C685.92 559.433 686.343 562.119 685.909 564.734C685.476 567.349 684.21 569.754 682.299 571.592C680.388 573.429 677.935 574.601 675.305 574.931C672.675 575.262 670.008 574.734 667.702 573.427C665.396 572.119 663.574 570.102 662.507 567.675C661.44 565.249 661.186 562.542 661.781 559.959C662.376 557.376 663.79 555.054 665.812 553.34L648.602 506.016L636.298 415.414Z" fill="#FFB6B6"/>
<path d="M608.674 830.075H624.34L631.794 769.645H608.672L608.674 830.075Z" fill="#FFB6B6"/>
<path d="M604.679 845.258H655.195V844.62C655.194 839.405 653.123 834.404 649.436 830.717C645.749 827.03 640.748 824.958 635.534 824.958H604.679V845.258Z" fill="#2F2E41"/>
<path d="M488.441 821.53L503.824 824.5L522.602 766.582L499.895 762.198L488.441 821.53Z" fill="#FFB6B6"/>
<path d="M481.643 835.684L531.243 845.262L531.364 844.634C532.352 839.514 531.266 834.211 528.345 829.891C525.424 825.572 520.907 822.589 515.787 821.6L485.493 815.75L481.643 835.684Z" fill="#2F2E41"/>
<path d="M633.24 320.099L624.137 337.564L555.96 322.527L563.429 288.666C569.341 261.863 593.039 242.507 619.842 248.418C646.644 254.33 659.15 280.526 653.238 307.329L642.252 341.556L631.136 339.104L633.24 320.099Z" fill="#2F2E41"/>
<path d="M657.55 512.729C657.55 512.729 664.262 546.285 655.313 595.501C646.365 644.717 644.128 665.97 644.128 665.97C644.128 665.97 650.839 673.799 646.365 678.274C641.891 682.748 646.365 691.696 646.365 691.696L636.298 800.195L601.623 794.603L606.097 692.815C606.097 692.815 601.623 683.866 603.86 681.629C606.097 679.392 601.623 665.97 601.623 665.97L596.03 559.708L561.355 676.037C561.355 676.037 564.711 680.511 561.355 683.866C558 687.222 551.288 704 551.288 704L528.917 782.299L493.124 775.587L513.258 686.104C513.258 686.104 511.021 680.511 514.376 677.155C515.355 676.129 516.07 674.88 516.46 673.516C516.849 672.152 516.902 670.714 516.613 669.325C516.613 669.325 513.258 665.97 517.732 661.495C522.206 657.021 524.443 639.124 524.443 639.124C524.443 639.124 527.799 519.44 538.984 512.729C550.17 506.017 657.55 512.729 657.55 512.729Z" fill="#2F2E41"/>
<path d="M606.973 327.651C624.27 327.651 638.292 313.629 638.292 296.332C638.292 279.035 624.27 265.013 606.973 265.013C589.676 265.013 575.654 279.035 575.654 296.332C575.654 313.629 589.676 327.651 606.973 327.651Z" fill="#FFB6B6"/>
<path d="M562.835 336.423C562.835 336.423 540.102 333.76 533.39 340.471L540.102 475.815C540.102 475.815 535.627 479.171 537.865 487.001C539.163 492.14 539.163 497.521 537.865 502.661C537.865 502.661 531.153 510.49 534.509 513.846C537.865 517.202 658.668 514.965 658.668 514.965C658.668 514.965 663.142 507.135 656.431 502.661C649.719 498.186 653.075 485.882 653.075 485.882C653.075 485.882 655.312 482.527 649.719 476.934C644.127 471.341 639.652 425.481 639.652 425.481L654.194 369.553C654.194 369.553 639.556 353.031 622.826 351.785L562.835 336.423Z" fill="#E6E6E6"/>
<path d="M636.863 370.322L654.192 369.552C654.192 369.552 664.259 389.686 665.378 407.583L671.538 474.347L631.821 480.289L636.863 370.322Z" fill="#E6E6E6"/>
<path d="M633.806 297.886L645.439 282.917C646.125 279.766 645.535 276.471 643.799 273.753C642.064 271.035 639.322 269.114 636.175 268.411L592.225 258.717C589.073 258.031 585.778 258.62 583.06 260.356C580.342 262.091 578.421 264.833 577.717 267.98L577.693 268.092L580.84 286.167L581.393 286.068C608.669 281.205 616.438 282.916 633.359 297.507L633.806 297.886Z" fill="#2F2E41"/>
<path d="M516.752 537.046L518.849 448.971L521.086 386.333L547.931 389.688L533.514 539.4C535.031 541.304 535.948 543.614 536.151 546.039C536.355 548.464 535.834 550.895 534.656 553.024C533.477 555.153 531.694 556.885 529.531 558.001C527.369 559.117 524.924 559.566 522.506 559.292C520.088 559.018 517.805 558.034 515.947 556.462C514.088 554.891 512.738 552.804 512.065 550.466C511.393 548.127 511.429 545.641 512.17 543.323C512.91 541.005 514.321 538.958 516.224 537.442C516.397 537.305 516.572 537.173 516.752 537.045V537.046Z" fill="#FFB6B6"/>
<path d="M552.973 342.358L533.39 340.47C533.39 340.47 530.035 340.47 526.679 351.656C523.324 362.841 504.876 481.058 504.876 481.058L545.696 484.763L552.973 342.358Z" fill="#E6E6E6"/>
<circle cx="128.811" cy="128.811" r="128.311" stroke="#6C63FF"/>
<defs>
<clipPath id="clip0_152:3">
<rect width="871" height="739" fill="white" transform="translate(106 54)"/>
</clipPath>
</defs>
</svg>
