<svg width="978" height="831" fill="none" xmlns="http://www.w3.org/2000/svg"><g clip-path="url(#clip0_162:42)"><path d="M947.518 348.382c-43.558 55.717-125.749 68.476-193.755 49.07a315.362 315.362 0 01-64.012-26.655c-11.787-6.403-23.292-13.426-34.562-20.91a475.593 475.593 0 01-8.29-5.594 470.013 470.013 0 01-5.593-3.883c-23.274-16.379-45.635-34.346-67.621-52.21-54.885-44.595-111.273-90.562-178.706-111.839-13.893-4.381-31.865-6.431-40.456 5.341-7.454 10.22-2.904 24.69 3.403 35.653 23.396 40.607 65.863 66.247 108.368 85.963 42.505 19.716 87.529 35.691 124.479 64.518 36.95 28.826 65.159 74.643 57.601 120.892-6.514 39.855-39.046 72.236-76.87 86.349-37.824 14.103-80.009 12.138-119.328 2.98-39.319-9.167-76.645-25.16-114.591-38.943-22.879-8.321-52.788-14.075-67.969 4.964-12.821 16.087-5.452 41.463 10.161 54.852 15.613 13.389 36.744 17.873 56.905 21.898 62.602 12.504 125.204 25.006 187.805 37.505 19.203 3.826 38.858 7.831 55.589 18.023 16.732 10.183 30.23 27.972 29.751 47.556-.48 19.303-14.608 36.358-31.922 44.905-17.304 8.537-37.288 9.853-56.567 8.932-72.245-3.46-279.366-118.269-329.043-132.946-31.921-9.421-66.822-23.261-80.283-53.705-16.76-37.9 10.82-83.754 48.465-101.063 37.636-17.319 81.269-13.483 122.289-7.654 41.02 5.83 83.394 13.248 123.324 2.172 39.929-11.075 76.512-47.18 72.574-88.436-3.431-35.897-35.756-62.947-69.774-74.869-26.629-9.336-54.959-11.875-82.932-16.078-7.765-1.156-15.5-2.454-23.161-4.052a288.561 288.561 0 01-57.103-18.334 294.097 294.097 0 01-54.555-31.318 286.976 286.976 0 01-37.899-32.917 239.832 239.832 0 01-5.274-5.651 201.424 201.424 0 01-4.887-5.641c-20.793-24.85-36.152-55.454-31.546-86.988 4.596-31.45 29.102-57.635 58.278-70.215 16.863-7.268 35.051-10.521 53.465-10.991 13.464-.27 26.925.7 40.211 2.895 61.484 9.835 117.825 39.715 171.036 72.068 53.202 32.352 105.051 67.864 162.886 90.927 57.836 23.073 123.672 32.842 182.344 11.979 58.672-20.854 106.873-77.756 104.007-139.97 38.914 33.519 71.982 75.65 86.627 124.879 14.645 49.23 8.76 106.075-22.869 146.541z" fill="#3F3D56"/><path d="M667.134 284.086a6.842 6.842 0 000-13.685 6.842 6.842 0 000 13.685z" fill="#6C63FF"/><path d="M908.704 197.563c5.842 0 10.577-4.737 10.577-10.58 0-5.842-4.735-10.579-10.577-10.579-5.841 0-10.576 4.737-10.576 10.579 0 5.843 4.735 10.58 10.576 10.58zM215.012 523.727a3.909 3.909 0 10-.001-7.817 3.909 3.909 0 00.001 7.817zM327.18 295.11a41.794 41.794 0 01-1.222 10.06c-7.765-1.156-15.5-2.454-23.161-4.052a288.627 288.627 0 01-57.103-18.334 41.684 41.684 0 0117.666-22.982 41.67 41.67 0 0153.737 8.128 41.694 41.694 0 0110.083 27.18z" fill="#FF6584"/><path d="M841.027 259.617a3.998 3.998 0 10-.002-7.996 3.998 3.998 0 00.002 7.996zM475.381 699.635a3.997 3.997 0 100-7.994 3.997 3.997 0 000 7.994zM532.719 755.108a3.997 3.997 0 003.997-3.998 3.997 3.997 0 10-3.997 3.998zM178.353 597.152a3.997 3.997 0 100-7.994 3.997 3.997 0 000 7.994zM374.806 522.876a3.997 3.997 0 003.996-3.998 3.997 3.997 0 10-7.993 0 3.997 3.997 0 003.997 3.998zM355.066 126.107a3.997 3.997 0 003.997-3.998 3.997 3.997 0 10-3.997 3.998zM596.637 439.197a3.997 3.997 0 003.996-3.998 3.997 3.997 0 10-7.993 0 3.997 3.997 0 003.997 3.998zM626.715 508.772a3.997 3.997 0 100-7.996 3.997 3.997 0 000 7.996z" fill="#F0F0F0"/><path d="M266.458 134.87a127.378 127.378 0 01-13.911 58.067 128.772 128.772 0 01-3.854 6.986 128.252 128.252 0 01-57.554 51.542 286.969 286.969 0 01-37.899-32.916 239.832 239.832 0 01-5.274-5.651 203.12 203.12 0 01-4.888-5.641c-20.792-24.85-36.151-55.454-31.545-86.989 4.596-31.45 29.102-57.635 58.278-70.215 16.863-7.267 35.051-10.52 53.465-10.99a127.985 127.985 0 0133.209 46.22 127.65 127.65 0 019.973 49.587z" fill="#6C63FF"/><path d="M324.735 141.451c0 19.585-19.118 37.75-53.84 51.167-6.947 2.689-14.382 5.124-22.202 7.305-29.271 8.161-64.106 12.683-100.727 12.975a203.12 203.12 0 01-4.888-5.641c.395.009.79.009 1.185.009 39.77 0 77.5-5.04 108.284-14.329 5.686-1.72 11.138-3.582 16.317-5.585 31.921-12.326 50.232-29.062 50.232-45.901 0-16.839-18.311-33.565-50.232-45.9a210.594 210.594 0 00-9.757-3.498 130.086 130.086 0 00-2.622-6.77c5 1.56 9.804 3.228 14.41 5.002 34.722 13.417 53.84 31.591 53.84 51.166z" fill="#E4E4E4"/><path d="M150.154 71.574a3.997 3.997 0 100-7.994 3.997 3.997 0 000 7.994zM233.811 96.96a3.998 3.998 0 10-.001-7.995 3.998 3.998 0 00.001 7.995zM190.573 172.268c21.465 0 38.866-17.406 38.866-38.877 0-21.47-17.401-38.876-38.866-38.876s-38.866 17.406-38.866 38.876c0 21.471 17.401 38.877 38.866 38.877z" fill="#F0F0F0"/><path opacity=".3" d="M908.33 339.149c-8.723 2.577-27.954 4.476-49.103 5.642-21.14 1.156-44.329 1.664-67.227 2.153-40.079.865-80.156 1.733-120.23 2.604-5.508.122-11.035.235-16.581.339a470.095 470.095 0 01-8.29-5.595c4.916.029 9.832 0 14.71-.094 20.839-.413 38.482-2.04 58.578-2.811 30.925-1.194 64.313-.254 96.544.226 32.231.489 68.955.31 91.599-2.464zM293.191 635.533l-127.76-106.461 124.117 110.725a2.957 2.957 0 004.798.413 2.967 2.967 0 00.624-2.636 2.964 2.964 0 00-1.779-2.041z" fill="#F0F0F0"/><path d="M196.213 232.35a3.997 3.997 0 10-.002-7.996 3.997 3.997 0 00.002 7.996z" fill="#F0F0F0"/><path opacity=".1" d="M532.662 292.306l5.473 4.106 2.736-19.16-8.209 15.054zM418.425 275.93l1.251 16.951 39.695 20.841-35.306-23.688-5.64-14.104zM417.671 327.09l45.872 20.296-47.147-9.216 1.275-11.08z" fill="#000"/><path d="M715.399 622.69c-.366.935-.44 1.657-.157 2.026l.078.086c.899.801 3.941-1.2 6.791-4.472 2.851-3.271 4.438-6.571 3.537-7.372-.34-.301-.981-.206-1.804.205-1.36.683-3.212 2.228-4.987 4.265-1.667 1.914-2.9 3.835-3.458 5.262z" fill="#0C70BA"/><path d="M721.155 618.559l9.782 9.674-1.293 1.341-9.782-9.675a1.208 1.208 0 01.517-1.234c.238-.131.514-.169.776-.106z" fill="#8CCDF4"/><path d="M713.594 622.897l1.648 1.818c-.283-.368-.209-1.09.157-2.025.559-1.427 1.792-3.35 3.458-5.262 1.775-2.038 3.627-3.582 4.988-4.265.822-.411 1.471-.506 1.803-.205l-1.641-1.8-.087-.098c-.899-.802-3.941 1.2-6.791 4.47-2.85 3.27-4.432 6.565-3.535 7.367z" fill="#FCFDFF"/><path d="M879.961 661.224c-.362 1.264-.855 2.081-1.441 2.245l-.151.03c-1.576.134-3.175-4.36-3.575-10.024-.4-5.664.56-10.375 2.136-10.509.595-.051 1.192.556 1.727 1.635.885 1.784 1.602 4.857 1.849 8.388.228 3.315-.004 6.3-.545 8.235z" fill="#0C70BA"/><path d="M877.147 652.443l-17.923 2.458.292 2.42 17.917-2.445c.178-.161.314-.364.399-.59.084-.225.113-.468.084-.706a1.48 1.48 0 00-.249-.661 1.446 1.446 0 00-.525-.464l.005-.012z" fill="#8CCDF4"/><path d="M881.686 662.857l-3.168.611c.588-.163 1.083-.979 1.441-2.246.544-1.934.776-4.918.543-8.234-.247-3.532-.964-6.605-1.849-8.389-.535-1.078-1.132-1.685-1.727-1.634l3.148-.607.17-.031c1.579-.135 3.18 4.352 3.577 10.021.396 5.669-.56 10.375-2.135 10.509z" fill="#A8D9E5"/><path d="M817.348 553.838l-1.263-.362-15.686 53.898 1.263.362 15.686-53.898z" fill="#8CCDF4"/><path d="M821.425 560.181a7.104 7.104 0 01-3.135 3.122 6.89 6.89 0 01-4.332.625 6.797 6.797 0 01-3.806-2.122 6.968 6.968 0 01-1.766-4.024 7.15 7.15 0 01.976-4.326 7.082 7.082 0 013.33-2.908 6.866 6.866 0 014.359-.334 6.801 6.801 0 013.655 2.374 6.97 6.97 0 011.469 3.674 7.147 7.147 0 01-.75 3.919z" fill="#8CCDF4"/><path d="M820.462 558.54a7.125 7.125 0 01-2.273 2.609 6.968 6.968 0 01-3.213 1.21 6.82 6.82 0 01-3.373-.482 6.812 6.812 0 01-2.716-2.058 7.095 7.095 0 01-.185-4.92 7.138 7.138 0 013.054-3.875 6.9 6.9 0 014.788-.92 6.798 6.798 0 014.166 2.486c.392.944.573 1.966.53 2.995a7.141 7.141 0 01-.778 2.955zM868.375 685.319c-5.246-2.93-11.237-5.866-17.856-8.751-6.434-2.805-13.461-5.552-20.971-8.192-11.849-4.165-24.9-8.053-38.723-11.44a436.901 436.901 0 00-11.849-2.733c-20.063-4.337-38.834-6.91-54.733-7.738a204.583 204.583 0 00-12.248-.285.194.194 0 01-.036-.015 83.775 83.775 0 0123.233-33.494c9.759-8.528 21.34-14.622 33.798-17.787a81.773 81.773 0 0110.655-1.974 79.573 79.573 0 0139.605 5.466 81.612 81.612 0 013.906 1.726 78.772 78.772 0 015.254 2.734c11.127 6.319 20.576 15.251 27.565 26.057 10.747 16.587 15.152 36.635 12.4 56.436v-.01z" fill="#E8F2F9"/><path d="M868.327 685.69c-4.813.022-9.999-.154-15.495-.527-18.209-1.239-39.825-4.644-62.64-10.235-31.963-7.831-59.81-18.356-78.197-28.748 20.829-.181 48.784 3.395 78.831 10.756 13.822 3.387 26.873 7.274 38.722 11.44 15.236 5.355 28.482 11.165 38.827 16.943-.016.123-.035.246-.048.371z" fill="url(#paint0_linear_162:42)"/><path d="M785.741 671.214c9.838 2.565 18.299 2.816 18.899.561.599-2.256-6.889-6.163-16.727-8.728-9.838-2.565-18.299-2.816-18.899-.561-.6 2.255 6.889 6.163 16.727 8.728z" fill="url(#paint1_linear_162:42)"/><path d="M782.716 683.248a45.408 45.408 0 01-1.617-.494c-4.984-1.619-8.646-3.742-8.43-4.983l.026-.101 3.652-13.537c.225-1.293 4.601-1.165 9.962.255.313.083.629.169.951.261 5.792 1.657 10.286 4.107 10.047 5.479l-.026.102-3.651 13.534c-.238 1.37-5.125 1.14-10.914-.516z" fill="#7C7C7C"/><path opacity=".31" d="M783.494 684.594a47.575 47.575 0 01-1.617-.494l4.974-19.606c.313.082.63.167.952.261 5.791 1.656 9.742 4.004 9.504 5.373l-.026.102-3.651 13.534c-.238 1.37-4.347 2.485-10.136.83z" fill="#636363"/><path d="M862.857 705.608a83.982 83.982 0 01-1.869 4.217c-5.875-3.29-12.692-6.587-20.28-9.805-6.243-2.65-13.012-5.247-20.209-7.739-11.431-3.96-23.942-7.66-37.162-10.897-23.478-5.752-45.675-9.199-64.195-10.342a213.754 213.754 0 00-12.48-.426c.093-1.478.228-2.959.404-4.44 3.939-.019 8.128.097 12.531.345 18.793 1.052 41.51 4.519 65.572 10.416 13.08 3.202 25.47 6.858 36.803 10.774 7.32 2.526 14.204 5.162 20.546 7.852 7.645 3.242 14.507 6.566 20.408 9.876l-.069.169z" fill="#0C70BA"/><path d="M860.99 709.819c-5.988 12.624-15.036 23.534-26.288 31.697a81.953 81.953 0 01-6.243 4.113c-20.199 12.046-45.16 15.262-68.499 6.916a78.273 78.273 0 01-3.519-1.352 79.836 79.836 0 01-15.959-8.794c-23.26-18.302-22.386-57.87-21.343-71.358 18.523 1.144 40.72 4.591 64.198 10.337 13.219 3.236 25.73 6.936 37.162 10.897a323.658 323.658 0 0120.209 7.738c7.59 3.22 14.407 6.517 20.282 9.806z" fill="#E8F2F9"/><g style="mix-blend-mode:screen"><path d="M724.3 646.437l-.061.026a205.423 205.423 0 00-12.248-.285.194.194 0 01-.036-.015 83.775 83.775 0 0123.233-33.494c9.759-8.527 21.34-14.622 33.798-17.786a78.628 78.628 0 015.55-1.212c-37.903 7.934-50.236 52.766-50.236 52.766z" fill="#FCFDFF"/><path d="M719.141 671.042a213.754 213.754 0 00-12.48-.426c.093-1.478.228-2.959.405-4.44 3.938-.019 8.127.097 12.53.345-.057.385-.259 1.995-.455 4.521z" fill="#FCFDFF" opacity=".2"/><path d="M740.482 742.399a82.33 82.33 0 01-2.378-1.756 80.108 80.108 0 01-18.917-20.8 80.97 80.97 0 01-3.814-6.734 82.614 82.614 0 01-8.133-26.272 82.769 82.769 0 01-.575-16.226 209 209 0 0112.48.426c-1.05 13.493-1.929 53.058 21.337 71.362z" fill="#FCFDFF"/></g><path opacity=".21" d="M862.857 705.608a85.84 85.84 0 01-1.869 4.217c-5.988 12.624-15.036 23.533-26.288 31.697a82.255 82.255 0 01-6.243 4.113c-20.2 12.046-45.16 15.262-68.499 6.915 48.897 10.962 74.119-37.331 80.751-52.53 1.215-2.779 1.805-4.452 1.805-4.452 7.645 3.242 14.508 6.566 20.409 9.876l-.066.164zM850.519 676.568s19.903-43.046-27.364-76.476a78.762 78.762 0 015.254 2.733c11.128 6.32 20.576 15.252 27.565 26.058 10.747 16.587 15.152 36.635 12.401 56.436-5.246-2.93-11.237-5.867-17.856-8.751z" fill="#0C70BA"/><path d="M848.228 655.673a10.341 10.341 0 01-1.765 3.924 10.238 10.238 0 01-3.2 2.854 10.015 10.015 0 01-4.062 1.272 9.833 9.833 0 01-4.195-.539c-12.858-4.641-27.256-8.962-42.595-12.66-15.881-3.831-31.175-6.608-45.14-8.338a9.817 9.817 0 01-4.043-1.442 9.884 9.884 0 01-3.05-3.036 10.09 10.09 0 01-1.494-4.07c-.2-1.454-.085-2.938.337-4.351l1.457-4.86a19.977 19.977 0 018.176-11.419c4.007-2.675 8.828-3.772 13.539-3.08 11.877 1.728 24.567 4.17 37.658 7.327 13.163 3.175 25.63 6.809 37.029 10.706a19.058 19.058 0 0110.517 8.873c2.296 4.179 2.984 9.087 1.935 13.791l-.256 1.148-.848 3.9z" fill="#2E1E4A"/><path d="M757.503 624.12s6.855-11.732 9.401 1.707M831.798 640.275s-2.352-13.313-9.435-1.529M804.471 639.929c-.552 3.557-6.782 5.404-12.026 4.151-5.66-1.352-8.161-8.864-6.791-11.885" stroke="#00F9DC" stroke-width="3.167" stroke-miterlimit="10" stroke-linecap="round"/><path d="M787.341 705.595a12.418 12.418 0 01-5.748 6.3 12 12 0 01-8.364 1.031 11.882 11.882 0 01-6.932-4.737 12.256 12.256 0 01-2.147-8.213 12.495 12.495 0 013.677-7.715 12.192 12.192 0 017.723-3.483 11.861 11.861 0 018.031 2.435 12.067 12.067 0 014.453 7.173 12.46 12.46 0 01-.693 7.209z" fill="#565656"/><path d="M787.147 704.301a10.925 10.925 0 01-5.29 5.395 10.553 10.553 0 01-7.44.603 10.47 10.47 0 01-5.943-4.485 10.83 10.83 0 01-1.532-7.374 10.999 10.999 0 013.631-6.646 10.688 10.688 0 017.012-2.661 10.44 10.44 0 016.957 2.629 10.671 10.671 0 013.489 6.631 12.477 12.477 0 01-.884 5.908z" fill="#7C7C7C"/><path d="M779.764 694.587a6.222 6.222 0 013.394 3.421 6.454 6.454 0 01-.019 4.881M771.697 705.493a6.312 6.312 0 01-1.681-3.24 6.477 6.477 0 01.377-3.664" stroke="#3A3A3A" stroke-width="2.111" stroke-miterlimit="10" stroke-linecap="round"/><path d="M845.87 724.168c3.943-4.912 5.521-10.221 3.525-11.857-1.996-1.636-6.811 1.02-10.754 5.932-3.943 4.912-5.521 10.22-3.525 11.857 1.996 1.636 6.811-1.02 10.754-5.932z" fill="url(#paint2_linear_162:42)"/><path d="M847.558 717.434s-7.07 1.211-8.347 9.855" stroke="#4C4C4C" stroke-width="2.111" stroke-miterlimit="10" stroke-linecap="round"/><path d="M717.703 701.202c2.635-.104 4.638-5.387 4.473-11.8-.165-6.414-2.435-11.528-5.07-11.424-2.635.105-4.637 5.388-4.472 11.801.165 6.413 2.434 11.528 5.069 11.423z" fill="url(#paint3_linear_162:42)"/><path d="M715.431 683.261s4.996 5.324.683 13.132" stroke="#4C4C4C" stroke-width="2.111" stroke-miterlimit="10" stroke-linecap="round"/><path opacity=".41" d="M774.613 705.196c2.193.901 4.716-.179 5.634-2.414.919-2.234-.115-4.776-2.308-5.678-2.194-.901-4.716.179-5.635 2.413-.918 2.235.116 4.777 2.309 5.679z" fill="#BCBCBC"/></g><path d="M637.298 400.414l19.015-2.237 6.711 58.164 17.136 80.321a12.299 12.299 0 016.749 13.072 12.303 12.303 0 11-20.097-11.394l-17.21-47.324-12.304-90.602zM609.674 815.075h15.666l7.454-60.43h-23.122l.002 60.43z" fill="#FFB6B6"/><path d="M605.679 830.258h50.516v-.638a19.666 19.666 0 00-19.661-19.662h-30.855v20.3z" fill="#2F2E41"/><path d="M489.441 806.53l15.383 2.97 18.778-57.918-22.707-4.384-11.454 59.332z" fill="#FFB6B6"/><path d="M482.643 820.684l49.6 9.578.121-.628a19.668 19.668 0 00-15.577-23.034l-30.294-5.85-3.85 19.934zM634.24 305.099l-9.103 17.465-68.177-15.037 7.469-33.861c5.912-26.803 29.61-46.159 56.413-40.248 26.802 5.912 39.308 32.108 33.396 58.911l-10.986 34.227-11.116-2.452 2.104-19.005zM658.55 497.729s6.712 33.556-2.237 82.772c-8.948 49.216-11.185 70.469-11.185 70.469s6.711 7.829 2.237 12.304c-4.474 4.474 0 13.422 0 13.422l-10.067 108.499-34.675-5.592 4.474-101.788s-4.474-8.949-2.237-11.186-2.237-15.659-2.237-15.659l-5.593-106.262-34.675 116.329s3.356 4.474 0 7.829C559 672.222 552.288 689 552.288 689l-22.371 78.299-35.793-6.712 20.134-89.483s-2.237-5.593 1.118-8.949a8.76 8.76 0 002.237-7.83s-3.355-3.355 1.119-7.83c4.474-4.474 6.711-22.371 6.711-22.371s3.356-119.684 14.541-126.395c11.186-6.712 118.566 0 118.566 0z" fill="#2F2E41"/><path d="M607.973 312.651c17.297 0 31.319-14.022 31.319-31.319 0-17.297-14.022-31.319-31.319-31.319-17.297 0-31.319 14.022-31.319 31.319 0 17.297 14.022 31.319 31.319 31.319z" fill="#FFB6B6"/><path d="M563.835 321.423s-22.733-2.663-29.445 4.048l6.712 135.344s-4.475 3.356-2.237 11.186a31.976 31.976 0 010 15.66s-6.712 7.829-3.356 11.185c3.356 3.356 124.159 1.119 124.159 1.119s4.474-7.83-2.237-12.304c-6.712-4.475-3.356-16.779-3.356-16.779s2.237-3.355-3.356-8.948c-5.592-5.593-10.067-51.453-10.067-51.453l14.542-55.928s-14.638-16.522-31.368-17.768l-59.991-15.362z" fill="#E6E6E6"/><path d="M637.863 355.322l17.329-.77s10.067 20.134 11.186 38.031l6.16 66.764-39.717 5.942 5.042-109.967z" fill="#E6E6E6"/><path d="M634.806 282.886l11.633-14.969a12.203 12.203 0 00-9.264-14.506l-43.95-9.694a12.204 12.204 0 00-14.508 9.263l-.024.112 3.147 18.075.553-.099c27.276-4.863 35.045-3.152 51.966 11.439l.447.379z" fill="#2F2E41"/><path d="M517.752 522.046l2.097-88.075 2.237-62.638 26.845 3.355L534.514 524.4a12.3 12.3 0 01-3.983 18.601 12.297 12.297 0 01-13.584-1.539 12.306 12.306 0 01-3.777-13.139 12.303 12.303 0 014.582-6.278v.001z" fill="#FFB6B6"/><path d="M553.973 327.358l-19.583-1.888s-3.355 0-6.711 11.186c-3.355 11.185-21.803 129.402-21.803 129.402l40.82 3.705 7.277-142.405z" fill="#E6E6E6"/><path d="M264.5 132c0 72.624-59.097 131.5-132 131.5C59.597 263.5.5 204.624.5 132S59.597.5 132.5.5c72.903 0 132 58.876 132 131.5z" stroke="#6C63FF"/><defs><linearGradient id="paint0_linear_162:42" x1="793.33" y1="652.077" x2="782.856" y2="699.117" gradientUnits="userSpaceOnUse"><stop stop-color="#3FACFF"/><stop offset="1" stop-color="#00336A"/></linearGradient><linearGradient id="paint1_linear_162:42" x1="788.941" y1="657.236" x2="786.156" y2="670.684" gradientUnits="userSpaceOnUse"><stop stop-color="#6F6F6F"/><stop offset="1" stop-color="#292929"/></linearGradient><linearGradient id="paint2_linear_162:42" x1="836.998" y1="716.709" x2="845.455" y2="723.805" gradientUnits="userSpaceOnUse"><stop stop-color="#9F9F9F"/><stop offset="1" stop-color="#2E2E2E"/></linearGradient><linearGradient id="paint3_linear_162:42" x1="-6867.55" y1="27143.7" x2="-5987.17" y2="27328.4" gradientUnits="userSpaceOnUse"><stop stop-color="#9F9F9F"/><stop offset="1" stop-color="#2E2E2E"/></linearGradient><clipPath id="clip0_162:42"><path fill="#fff" transform="translate(107 39)" d="M0 0h871v739H0z"/></clipPath></defs></svg>