<svg width="978" height="831" viewBox="0 0 978 831" fill="none" xmlns="http://www.w3.org/2000/svg">
<g clip-path="url(#clip0_162:42)">
<path d="M947.518 348.382C903.96 404.099 821.769 416.858 753.763 397.452C731.511 390.947 710.044 382.008 689.751 370.797C677.964 364.394 666.459 357.371 655.189 349.887C652.416 348.053 649.643 346.192 646.899 344.293C645.028 343.014 643.164 341.72 641.306 340.41C618.032 324.031 595.671 306.064 573.685 288.2C518.8 243.605 462.412 197.638 394.979 176.361C381.086 171.98 363.114 169.93 354.523 181.702C347.069 191.922 351.619 206.392 357.926 217.355C381.322 257.962 423.789 283.602 466.294 303.318C508.799 323.034 553.823 339.009 590.773 367.836C627.723 396.662 655.932 442.479 648.374 488.728C641.86 528.583 609.328 560.964 571.504 575.077C533.68 589.18 491.495 587.215 452.176 578.057C412.857 568.89 375.531 552.897 337.585 539.114C314.706 530.793 284.797 525.039 269.616 544.078C256.795 560.165 264.164 585.541 279.777 598.93C295.39 612.319 316.521 616.803 336.682 620.828C399.284 633.332 461.886 645.834 524.487 658.333C543.69 662.159 563.345 666.164 580.076 676.356C596.808 686.539 610.306 704.328 609.827 723.912C609.347 743.215 595.219 760.27 577.905 768.817C560.601 777.354 540.617 778.67 521.338 777.749C449.093 774.289 241.972 659.48 192.295 644.803C160.374 635.382 125.473 621.542 112.012 591.098C95.2528 553.198 122.832 507.344 160.477 490.035C198.113 472.716 241.746 476.552 282.766 482.381C323.786 488.211 366.16 495.629 406.09 484.553C446.019 473.478 482.602 437.373 478.664 396.117C475.233 360.22 442.908 333.17 408.89 321.248C382.261 311.912 353.931 309.373 325.958 305.17C318.193 304.014 310.458 302.716 302.797 301.118C283.178 297.007 264.04 290.862 245.694 282.784C226.442 274.325 208.152 263.826 191.139 251.466C177.569 241.622 164.887 230.607 153.24 218.549C151.463 216.706 149.705 214.822 147.966 212.898C146.312 211.055 144.676 209.175 143.079 207.257C122.286 182.407 106.927 151.803 111.533 120.269C116.129 88.8185 140.635 62.6337 169.811 50.0536C186.674 42.7858 204.862 39.5327 223.276 39.0626C236.74 38.7934 250.201 39.7628 263.487 41.9584C324.971 51.793 381.312 81.673 434.523 114.026C487.725 146.378 539.574 181.89 597.409 204.953C655.245 228.026 721.081 237.795 779.753 216.932C838.425 196.078 886.626 139.176 883.76 76.9625C922.674 110.481 955.742 152.612 970.387 201.841C985.032 251.071 979.147 307.916 947.518 348.382Z" fill="#3F3D56"/>
<path d="M667.134 284.086C670.912 284.086 673.975 281.023 673.975 277.244C673.975 273.465 670.912 270.401 667.134 270.401C663.356 270.401 660.293 273.465 660.293 277.244C660.293 281.023 663.356 284.086 667.134 284.086Z" fill="#6C63FF"/>
<path d="M908.704 197.563C914.546 197.563 919.281 192.826 919.281 186.983C919.281 181.141 914.546 176.404 908.704 176.404C902.863 176.404 898.128 181.141 898.128 186.983C898.128 192.826 902.863 197.563 908.704 197.563Z" fill="#FF6584"/>
<path d="M215.012 523.727C217.17 523.727 218.92 521.977 218.92 519.818C218.92 517.659 217.17 515.909 215.012 515.909C212.853 515.909 211.104 517.659 211.104 519.818C211.104 521.977 212.853 523.727 215.012 523.727Z" fill="#FF6584"/>
<path d="M327.18 295.11C327.182 298.501 326.772 301.879 325.958 305.17C318.193 304.014 310.458 302.716 302.797 301.118C283.178 297.006 264.04 290.862 245.694 282.784C248.644 273.256 254.912 265.102 263.36 259.802C271.808 254.502 281.876 252.408 291.736 253.899C301.596 255.391 310.594 260.369 317.097 267.93C323.601 275.492 327.178 285.135 327.18 295.11Z" fill="#FF6584"/>
<path d="M841.027 259.617C843.234 259.617 845.024 257.827 845.024 255.619C845.024 253.411 843.234 251.621 841.027 251.621C838.82 251.621 837.03 253.411 837.03 255.619C837.03 257.827 838.82 259.617 841.027 259.617Z" fill="#F0F0F0"/>
<path d="M475.381 699.635C477.589 699.635 479.378 697.845 479.378 695.638C479.378 693.43 477.589 691.64 475.381 691.64C473.174 691.64 471.385 693.43 471.385 695.638C471.385 697.845 473.174 699.635 475.381 699.635Z" fill="#F0F0F0"/>
<path d="M532.719 755.108C534.927 755.108 536.716 753.318 536.716 751.11C536.716 748.902 534.927 747.112 532.719 747.112C530.512 747.112 528.723 748.902 528.723 751.11C528.723 753.318 530.512 755.108 532.719 755.108Z" fill="#F0F0F0"/>
<path d="M178.353 597.152C180.561 597.152 182.35 595.362 182.35 593.155C182.35 590.947 180.561 589.157 178.353 589.157C176.146 589.157 174.357 590.947 174.357 593.155C174.357 595.362 176.146 597.152 178.353 597.152Z" fill="#F0F0F0"/>
<path d="M374.806 522.876C377.013 522.876 378.802 521.086 378.802 518.878C378.802 516.67 377.013 514.88 374.806 514.88C372.598 514.88 370.809 516.67 370.809 518.878C370.809 521.086 372.598 522.876 374.806 522.876Z" fill="#F0F0F0"/>
<path d="M355.066 126.107C357.274 126.107 359.063 124.317 359.063 122.109C359.063 119.901 357.274 118.111 355.066 118.111C352.859 118.111 351.07 119.901 351.07 122.109C351.07 124.317 352.859 126.107 355.066 126.107Z" fill="#F0F0F0"/>
<path d="M596.637 439.197C598.844 439.197 600.633 437.407 600.633 435.199C600.633 432.991 598.844 431.201 596.637 431.201C594.429 431.201 592.64 432.991 592.64 435.199C592.64 437.407 594.429 439.197 596.637 439.197Z" fill="#F0F0F0"/>
<path d="M626.715 508.772C628.923 508.772 630.712 506.983 630.712 504.775C630.712 502.567 628.923 500.777 626.715 500.777C624.508 500.777 622.719 502.567 622.719 504.775C622.719 506.983 624.508 508.772 626.715 508.772Z" fill="#F0F0F0"/>
<path d="M266.458 134.87C266.487 155.055 261.719 174.958 252.547 192.937C251.334 195.307 250.049 197.635 248.693 199.923C235.26 222.613 215.164 240.61 191.139 251.465C177.569 241.621 164.887 230.607 153.24 218.549C151.463 216.706 149.705 214.822 147.966 212.898C146.312 211.055 144.676 209.175 143.078 207.257C122.286 182.407 106.927 151.803 111.533 120.268C116.129 88.8183 140.635 62.6334 169.811 50.0533C186.674 42.7855 204.862 39.5324 223.276 39.0623C237.674 51.7806 249.024 67.5782 256.485 85.2831C257.425 87.5114 258.29 89.7679 259.107 92.0526C263.986 105.8 266.472 120.282 266.458 134.87Z" fill="#6C63FF"/>
<path d="M324.735 141.451C324.735 161.036 305.617 179.201 270.895 192.618C263.948 195.307 256.513 197.742 248.693 199.923C219.422 208.084 184.587 212.606 147.966 212.898C146.312 211.055 144.676 209.175 143.078 207.257C143.473 207.266 143.868 207.266 144.263 207.266C184.033 207.266 221.763 202.226 252.547 192.937C258.233 191.217 263.685 189.355 268.864 187.352C300.785 175.026 319.096 158.29 319.096 141.451C319.096 124.612 300.785 107.886 268.864 95.5502C265.706 94.3279 262.454 93.162 259.107 92.0526C258.29 89.7679 257.425 87.5114 256.485 85.2831C261.485 86.8438 266.289 88.5111 270.895 90.285C305.617 103.702 324.735 121.876 324.735 141.451Z" fill="#E4E4E4"/>
<path d="M150.154 71.5743C152.362 71.5743 154.151 69.7844 154.151 67.5765C154.151 65.3686 152.362 63.5788 150.154 63.5788C147.947 63.5788 146.158 65.3686 146.158 67.5765C146.158 69.7844 147.947 71.5743 150.154 71.5743Z" fill="#F0F0F0"/>
<path d="M233.811 96.96C236.018 96.96 237.808 95.1701 237.808 92.9622C237.808 90.7543 236.018 88.9645 233.811 88.9645C231.604 88.9645 229.814 90.7543 229.814 92.9622C229.814 95.1701 231.604 96.96 233.811 96.96Z" fill="#F0F0F0"/>
<path d="M190.573 172.268C212.038 172.268 229.439 154.862 229.439 133.391C229.439 111.921 212.038 94.5151 190.573 94.5151C169.108 94.5151 151.707 111.921 151.707 133.391C151.707 154.862 169.108 172.268 190.573 172.268Z" fill="#F0F0F0"/>
<path opacity="0.3" d="M908.33 339.149C899.607 341.726 880.376 343.625 859.227 344.791C838.087 345.947 814.898 346.455 792 346.944C751.921 347.809 711.844 348.677 671.77 349.548C666.262 349.67 660.735 349.783 655.189 349.887C652.416 348.053 649.643 346.192 646.899 344.292C651.815 344.321 656.731 344.292 661.609 344.198C682.448 343.785 700.091 342.158 720.187 341.387C751.112 340.193 784.5 341.133 816.731 341.613C848.962 342.102 885.686 341.923 908.33 339.149Z" fill="#F0F0F0"/>
<path opacity="0.3" d="M293.191 635.533L165.431 529.072L289.548 639.797C289.788 640.202 290.122 640.544 290.521 640.794C290.919 641.045 291.372 641.196 291.841 641.237C292.31 641.277 292.782 641.205 293.218 641.026C293.654 640.848 294.04 640.568 294.346 640.21C294.652 639.852 294.868 639.426 294.977 638.967C295.085 638.509 295.083 638.032 294.97 637.574C294.857 637.117 294.637 636.694 294.328 636.339C294.018 635.983 293.629 635.707 293.191 635.533H293.191Z" fill="#F0F0F0"/>
<path d="M196.213 232.35C198.42 232.35 200.209 230.561 200.209 228.353C200.209 226.145 198.42 224.355 196.213 224.355C194.005 224.355 192.216 226.145 192.216 228.353C192.216 230.561 194.005 232.35 196.213 232.35Z" fill="#F0F0F0"/>
<path opacity="0.1" d="M532.662 292.306L538.135 296.412L540.871 277.252L532.662 292.306Z" fill="black"/>
<path opacity="0.1" d="M418.425 275.93L419.676 292.881L459.371 313.722L424.065 290.034L418.425 275.93Z" fill="black"/>
<path opacity="0.1" d="M417.671 327.09L463.543 347.386L416.396 338.17L417.671 327.09Z" fill="black"/>
<path d="M715.399 622.69C715.033 623.625 714.959 624.347 715.242 624.716L715.32 624.802C716.219 625.603 719.261 623.602 722.111 620.33C724.962 617.059 726.549 613.759 725.648 612.958C725.308 612.657 724.667 612.752 723.844 613.163C722.484 613.846 720.632 615.391 718.857 617.428C717.19 619.342 715.957 621.263 715.399 622.69Z" fill="#0C70BA"/>
<path d="M721.155 618.559L730.937 628.233L729.644 629.574L719.862 619.899C719.817 619.666 719.842 619.424 719.934 619.204C720.026 618.984 720.181 618.796 720.379 618.665C720.617 618.534 720.893 618.496 721.155 618.559V618.559Z" fill="#8CCDF4"/>
<path d="M713.594 622.897L715.242 624.715C714.959 624.347 715.033 623.625 715.399 622.69C715.958 621.263 717.191 619.34 718.857 617.428C720.632 615.39 722.484 613.846 723.845 613.163C724.667 612.752 725.316 612.657 725.648 612.958L724.007 611.158L723.92 611.06C723.021 610.258 719.979 612.26 717.129 615.53C714.279 618.8 712.697 622.095 713.594 622.897Z" fill="#FCFDFF"/>
<path d="M879.961 661.224C879.599 662.488 879.106 663.305 878.52 663.469L878.369 663.499C876.793 663.633 875.194 659.139 874.794 653.475C874.394 647.811 875.354 643.1 876.93 642.966C877.525 642.915 878.122 643.522 878.657 644.601C879.542 646.385 880.259 649.458 880.506 652.989C880.734 656.304 880.502 659.289 879.961 661.224Z" fill="#0C70BA"/>
<path d="M877.147 652.443L859.224 654.901L859.516 657.321L877.433 654.876C877.611 654.715 877.747 654.512 877.832 654.286C877.916 654.061 877.945 653.818 877.916 653.58C877.887 653.342 877.802 653.115 877.667 652.919C877.532 652.723 877.352 652.564 877.142 652.455L877.147 652.443Z" fill="#8CCDF4"/>
<path d="M881.686 662.857L878.518 663.468C879.106 663.305 879.601 662.489 879.959 661.222C880.503 659.288 880.735 656.304 880.502 652.988C880.255 649.456 879.538 646.383 878.653 644.599C878.118 643.521 877.521 642.914 876.926 642.965L880.074 642.358L880.244 642.327C881.823 642.192 883.424 646.679 883.821 652.348C884.217 658.017 883.261 662.723 881.686 662.857Z" fill="#A8D9E5"/>
<path d="M817.348 553.838L816.085 553.476L800.399 607.374L801.662 607.736L817.348 553.838Z" fill="#8CCDF4"/>
<path d="M821.425 560.181C820.735 561.533 819.635 562.628 818.29 563.303C816.944 563.978 815.424 564.197 813.958 563.928C812.491 563.658 811.156 562.913 810.152 561.806C809.148 560.698 808.529 559.287 808.386 557.782C808.244 556.277 808.586 554.759 809.362 553.456C810.138 552.152 811.306 551.132 812.692 550.548C814.077 549.964 815.607 549.847 817.051 550.214C818.495 550.582 819.778 551.415 820.706 552.588C821.538 553.639 822.048 554.915 822.175 556.262C822.303 557.61 822.042 558.971 821.425 560.181Z" fill="#8CCDF4"/>
<path d="M820.462 558.54C819.928 559.586 819.147 560.482 818.189 561.149C817.23 561.816 816.126 562.232 814.976 562.359C813.826 562.486 812.666 562.32 811.603 561.877C810.539 561.433 809.606 560.726 808.887 559.819C808.24 558.263 808.175 556.515 808.702 554.899C809.23 553.282 810.314 551.906 811.756 551.024C813.198 550.143 814.898 549.816 816.544 550.104C818.19 550.391 819.67 551.275 820.71 552.59C821.102 553.534 821.283 554.556 821.24 555.585C821.197 556.613 820.932 557.622 820.462 558.54V558.54Z" fill="#E8F2F9"/>
<path d="M868.375 685.319C863.129 682.389 857.138 679.453 850.519 676.568C844.085 673.763 837.058 671.016 829.548 668.376C817.699 664.211 804.648 660.323 790.825 656.936C786.836 655.958 782.886 655.047 778.976 654.203C758.913 649.866 740.142 647.293 724.243 646.465C719.938 646.241 715.848 646.149 711.995 646.18C711.982 646.176 711.97 646.171 711.959 646.165C712.24 645.423 712.531 644.685 712.832 643.951C717.771 631.916 725.432 621.198 735.192 612.671C744.951 604.143 756.532 598.049 768.99 594.884V594.884C770.822 594.415 772.671 594.011 774.54 593.673C776.232 593.365 777.934 593.111 779.645 592.91C793.133 591.337 806.751 593.216 819.25 598.376C820.574 598.92 821.876 599.496 823.156 600.102C824.954 600.954 826.705 601.865 828.41 602.836C839.537 609.155 848.986 618.087 855.975 628.893C866.722 645.48 871.127 665.528 868.375 685.329L868.375 685.319Z" fill="#E8F2F9"/>
<path d="M868.327 685.69C863.514 685.712 858.328 685.536 852.832 685.163C834.623 683.924 813.007 680.519 790.192 674.928C758.229 667.097 730.382 656.572 711.995 646.18C732.824 645.999 760.779 649.575 790.826 656.936C804.648 660.323 817.699 664.21 829.548 668.376C844.784 673.731 858.03 679.541 868.375 685.319C868.359 685.442 868.34 685.565 868.327 685.69Z" fill="url(#paint0_linear_162:42)"/>
<path d="M785.741 671.214C795.579 673.779 804.04 674.03 804.64 671.775C805.239 669.519 797.751 665.612 787.913 663.047C778.075 660.482 769.614 660.231 769.014 662.486C768.414 664.741 775.903 668.649 785.741 671.214Z" fill="url(#paint1_linear_162:42)"/>
<path d="M782.716 683.248C782.165 683.091 781.624 682.925 781.099 682.754C776.115 681.135 772.453 679.012 772.669 677.771L772.695 677.67L776.347 664.133C776.572 662.84 780.948 662.968 786.309 664.388C786.622 664.471 786.938 664.557 787.26 664.649C793.052 666.306 797.546 668.756 797.307 670.128L797.281 670.23L793.63 683.764C793.392 685.134 788.505 684.904 782.716 683.248Z" fill="#7C7C7C"/>
<path opacity="0.31" d="M783.494 684.594C782.943 684.437 782.402 684.27 781.877 684.1L786.851 664.494C787.164 664.576 787.481 664.661 787.803 664.755C793.594 666.411 797.545 668.759 797.307 670.128L797.281 670.23L793.63 683.764C793.392 685.134 789.283 686.249 783.494 684.594Z" fill="#636363"/>
<path d="M862.857 705.608C862.27 707.037 861.647 708.442 860.988 709.825C855.113 706.535 848.296 703.238 840.708 700.02C834.465 697.37 827.696 694.773 820.499 692.281C809.068 688.321 796.557 684.621 783.337 681.384C759.859 675.632 737.662 672.185 719.142 671.042C714.765 670.771 710.605 670.629 706.662 670.616C706.755 669.138 706.89 667.657 707.066 666.176C711.005 666.157 715.194 666.273 719.597 666.521C738.39 667.573 761.107 671.04 785.169 676.937C798.249 680.139 810.639 683.795 821.972 687.711C829.292 690.237 836.176 692.873 842.518 695.563C850.163 698.805 857.025 702.129 862.926 705.439C862.903 705.495 862.88 705.552 862.857 705.608Z" fill="#0C70BA"/>
<path d="M860.99 709.819C855.002 722.443 845.954 733.353 834.702 741.516C832.682 742.983 830.601 744.354 828.459 745.629C808.26 757.675 783.299 760.891 759.96 752.545C758.782 752.125 757.609 751.674 756.441 751.193C750.805 748.882 745.452 745.931 740.482 742.399C717.222 724.097 718.096 684.529 719.139 671.041C737.662 672.185 759.859 675.632 783.337 681.378C796.556 684.614 809.067 688.314 820.499 692.275C827.696 694.766 834.462 697.37 840.708 700.013C848.298 703.233 855.115 706.53 860.99 709.819Z" fill="#E8F2F9"/>
<g style="mix-blend-mode:screen">
<g style="mix-blend-mode:screen">
<path d="M724.3 646.437L724.239 646.463C719.934 646.24 715.844 646.147 711.991 646.178C711.978 646.174 711.966 646.169 711.955 646.163C712.236 645.421 712.527 644.683 712.828 643.949C717.767 631.914 725.428 621.196 735.188 612.669C744.947 604.142 756.528 598.047 768.986 594.883V594.883C770.818 594.413 772.667 594.009 774.536 593.671C736.633 601.605 724.3 646.437 724.3 646.437Z" fill="#FCFDFF"/>
</g>
<g style="mix-blend-mode:screen" opacity="0.2">
<path d="M719.141 671.042C714.764 670.771 710.604 670.629 706.661 670.616C706.754 669.138 706.889 667.657 707.066 666.176C711.004 666.157 715.193 666.273 719.596 666.521C719.539 666.906 719.337 668.516 719.141 671.042Z" fill="#FCFDFF"/>
</g>
<g style="mix-blend-mode:screen">
<path d="M740.482 742.399C739.678 741.827 738.885 741.242 738.104 740.643C730.636 734.895 724.234 727.856 719.187 719.843C717.808 717.659 716.537 715.414 715.373 713.109C711.222 704.895 708.472 696.014 707.24 686.837C706.517 681.468 706.325 676.033 706.665 670.611C710.601 670.621 714.761 670.763 719.145 671.037C718.095 684.53 717.216 724.095 740.482 742.399Z" fill="#FCFDFF"/>
</g>
</g>
<path opacity="0.21" d="M862.857 705.608C862.269 707.037 861.646 708.442 860.988 709.825C855 722.449 845.952 733.358 834.7 741.522C832.68 742.988 830.599 744.36 828.457 745.635C808.257 757.681 783.297 760.897 759.958 752.55C808.855 763.512 834.077 715.219 840.709 700.02C841.924 697.241 842.514 695.568 842.514 695.568C850.159 698.81 857.022 702.134 862.923 705.444C862.903 705.495 862.88 705.552 862.857 705.608Z" fill="#0C70BA"/>
<path opacity="0.21" d="M850.519 676.568C850.519 676.568 870.422 633.522 823.155 600.092C824.953 600.943 826.704 601.855 828.409 602.825C839.537 609.145 848.985 618.077 855.974 628.883C866.721 645.47 871.126 665.518 868.375 685.319C863.129 682.389 857.138 679.452 850.519 676.568Z" fill="#0C70BA"/>
<path d="M848.228 655.673C847.921 657.09 847.32 658.428 846.463 659.597C845.607 660.766 844.516 661.739 843.263 662.451C842.011 663.163 840.626 663.596 839.201 663.723C837.777 663.849 836.347 663.666 835.006 663.184C822.148 658.543 807.75 654.222 792.411 650.524C776.53 646.693 761.236 643.916 747.271 642.186C745.832 642.009 744.453 641.517 743.228 640.744C742.003 639.971 740.963 638.935 740.178 637.708C739.393 636.481 738.883 635.092 738.684 633.638C738.484 632.184 738.599 630.7 739.021 629.287L740.478 624.427C741.737 619.749 744.648 615.683 748.654 613.008C752.661 610.333 757.482 609.236 762.193 609.928C774.07 611.656 786.76 614.098 799.851 617.255C813.014 620.43 825.481 624.064 836.88 627.961C841.358 629.497 845.101 632.655 847.397 636.834C849.693 641.013 850.381 645.921 849.332 650.625L849.076 651.773L848.228 655.673Z" fill="#2E1E4A"/>
<path d="M757.503 624.12C757.503 624.12 764.358 612.388 766.904 625.827" stroke="#00F9DC" stroke-width="3.16667" stroke-miterlimit="10" stroke-linecap="round"/>
<path d="M831.798 640.275C831.798 640.275 829.446 626.962 822.363 638.746" stroke="#00F9DC" stroke-width="3.16667" stroke-miterlimit="10" stroke-linecap="round"/>
<path d="M804.471 639.929C803.919 643.486 797.689 645.333 792.445 644.08C786.785 642.728 784.284 635.216 785.654 632.195" stroke="#00F9DC" stroke-width="3.16667" stroke-miterlimit="10" stroke-linecap="round"/>
<path d="M787.341 705.595C786.222 708.315 784.183 710.55 781.593 711.895C779.004 713.241 776.036 713.606 773.229 712.926C770.423 712.246 767.963 710.565 766.297 708.189C764.63 705.812 763.869 702.898 764.15 699.976C764.43 697.053 765.735 694.316 767.827 692.261C769.919 690.206 772.66 688.971 775.55 688.778C778.441 688.586 781.291 689.45 783.581 691.213C785.872 692.976 787.452 695.521 788.034 698.386C788.523 700.796 788.281 703.308 787.341 705.595V705.595Z" fill="#565656"/>
<path d="M787.147 704.301C786.075 706.678 784.196 708.594 781.857 709.696C779.518 710.798 776.876 711.012 774.417 710.299C771.958 709.586 769.847 707.993 768.474 705.814C767.101 703.635 766.557 701.017 766.942 698.44C767.328 695.864 768.617 693.504 770.573 691.794C772.528 690.083 775.019 689.138 777.585 689.133C780.152 689.127 782.623 690.061 784.542 691.762C786.461 693.464 787.7 695.819 788.031 698.393C788.22 700.4 787.916 702.429 787.147 704.301V704.301Z" fill="#7C7C7C"/>
<path d="M779.764 694.587C781.304 695.22 782.525 696.451 783.158 698.008C783.791 699.564 783.784 701.32 783.139 702.889" stroke="#3A3A3A" stroke-width="2.11111" stroke-miterlimit="10" stroke-linecap="round"/>
<path d="M771.697 705.493C770.833 704.608 770.248 703.481 770.016 702.253C769.784 701.026 769.915 699.751 770.393 698.589" stroke="#3A3A3A" stroke-width="2.11111" stroke-miterlimit="10" stroke-linecap="round"/>
<path d="M845.87 724.168C849.813 719.256 851.391 713.947 849.395 712.311C847.399 710.675 842.584 713.331 838.641 718.243C834.698 723.155 833.12 728.463 835.116 730.1C837.112 731.736 841.927 729.08 845.87 724.168Z" fill="url(#paint2_linear_162:42)"/>
<path d="M847.558 717.434C847.558 717.434 840.488 718.645 839.211 727.289" stroke="#4C4C4C" stroke-width="2.11111" stroke-miterlimit="10" stroke-linecap="round"/>
<path d="M717.703 701.202C720.338 701.098 722.341 695.815 722.176 689.402C722.011 682.988 719.741 677.874 717.106 677.978C714.471 678.083 712.469 683.366 712.634 689.779C712.799 696.192 715.068 701.307 717.703 701.202Z" fill="url(#paint3_linear_162:42)"/>
<path d="M715.431 683.261C715.431 683.261 720.427 688.585 716.114 696.393" stroke="#4C4C4C" stroke-width="2.11111" stroke-miterlimit="10" stroke-linecap="round"/>
<path opacity="0.41" d="M774.613 705.196C776.806 706.097 779.329 705.017 780.247 702.782C781.166 700.548 780.132 698.006 777.939 697.104C775.745 696.203 773.223 697.283 772.304 699.517C771.386 701.752 772.42 704.294 774.613 705.196Z" fill="#BCBCBC"/>
</g>
<path d="M637.298 400.414L656.313 398.177L663.024 456.341L680.16 536.662C682.543 537.823 684.487 539.722 685.703 542.078C686.92 544.433 687.343 547.119 686.909 549.734C686.476 552.349 685.21 554.754 683.299 556.592C681.388 558.429 678.935 559.601 676.305 559.931C673.675 560.262 671.008 559.734 668.702 558.427C666.396 557.119 664.574 555.102 663.507 552.675C662.44 550.249 662.186 547.542 662.781 544.959C663.376 542.376 664.79 540.054 666.812 538.34L649.602 491.016L637.298 400.414Z" fill="#FFB6B6"/>
<path d="M609.674 815.075H625.34L632.794 754.645H609.672L609.674 815.075Z" fill="#FFB6B6"/>
<path d="M605.679 830.258H656.195V829.62C656.194 824.405 654.123 819.404 650.436 815.717C646.749 812.03 641.748 809.958 636.534 809.958H605.679V830.258Z" fill="#2F2E41"/>
<path d="M489.441 806.53L504.824 809.5L523.602 751.582L500.895 747.198L489.441 806.53Z" fill="#FFB6B6"/>
<path d="M482.643 820.684L532.243 830.262L532.364 829.634C533.352 824.514 532.266 819.211 529.345 814.891C526.424 810.572 521.907 807.589 516.787 806.6L486.493 800.75L482.643 820.684Z" fill="#2F2E41"/>
<path d="M634.24 305.099L625.137 322.564L556.96 307.527L564.429 273.666C570.341 246.863 594.039 227.507 620.842 233.418C647.644 239.33 660.15 265.526 654.238 292.329L643.252 326.556L632.136 324.104L634.24 305.099Z" fill="#2F2E41"/>
<path d="M658.55 497.729C658.55 497.729 665.262 531.285 656.313 580.501C647.365 629.717 645.128 650.97 645.128 650.97C645.128 650.97 651.839 658.799 647.365 663.274C642.891 667.748 647.365 676.696 647.365 676.696L637.298 785.195L602.623 779.603L607.097 677.815C607.097 677.815 602.623 668.866 604.86 666.629C607.097 664.392 602.623 650.97 602.623 650.97L597.03 544.708L562.355 661.037C562.355 661.037 565.711 665.511 562.355 668.866C559 672.222 552.288 689 552.288 689L529.917 767.299L494.124 760.587L514.258 671.104C514.258 671.104 512.021 665.511 515.376 662.155C516.355 661.129 517.07 659.88 517.46 658.516C517.849 657.152 517.902 655.714 517.613 654.325C517.613 654.325 514.258 650.97 518.732 646.495C523.206 642.021 525.443 624.124 525.443 624.124C525.443 624.124 528.799 504.44 539.984 497.729C551.17 491.017 658.55 497.729 658.55 497.729Z" fill="#2F2E41"/>
<path d="M607.973 312.651C625.27 312.651 639.292 298.629 639.292 281.332C639.292 264.035 625.27 250.013 607.973 250.013C590.676 250.013 576.654 264.035 576.654 281.332C576.654 298.629 590.676 312.651 607.973 312.651Z" fill="#FFB6B6"/>
<path d="M563.835 321.423C563.835 321.423 541.102 318.76 534.39 325.471L541.102 460.815C541.102 460.815 536.627 464.171 538.865 472.001C540.163 477.14 540.163 482.521 538.865 487.661C538.865 487.661 532.153 495.49 535.509 498.846C538.865 502.202 659.668 499.965 659.668 499.965C659.668 499.965 664.142 492.135 657.431 487.661C650.719 483.186 654.075 470.882 654.075 470.882C654.075 470.882 656.312 467.527 650.719 461.934C645.127 456.341 640.652 410.481 640.652 410.481L655.194 354.553C655.194 354.553 640.556 338.031 623.826 336.785L563.835 321.423Z" fill="#E6E6E6"/>
<path d="M637.863 355.322L655.192 354.552C655.192 354.552 665.259 374.686 666.378 392.583L672.538 459.347L632.821 465.289L637.863 355.322Z" fill="#E6E6E6"/>
<path d="M634.806 282.886L646.439 267.917C647.125 264.766 646.535 261.471 644.799 258.753C643.064 256.035 640.322 254.114 637.175 253.411L593.225 243.717C590.073 243.031 586.778 243.62 584.06 245.356C581.342 247.091 579.421 249.833 578.717 252.98L578.693 253.092L581.84 271.167L582.393 271.068C609.669 266.205 617.438 267.916 634.359 282.507L634.806 282.886Z" fill="#2F2E41"/>
<path d="M517.752 522.046L519.849 433.971L522.086 371.333L548.931 374.688L534.514 524.4C536.031 526.304 536.948 528.614 537.151 531.039C537.355 533.464 536.834 535.895 535.656 538.024C534.477 540.153 532.694 541.885 530.531 543.001C528.369 544.117 525.924 544.566 523.506 544.292C521.088 544.018 518.805 543.034 516.947 541.462C515.088 539.891 513.738 537.804 513.065 535.466C512.393 533.127 512.429 530.641 513.17 528.323C513.91 526.005 515.321 523.958 517.224 522.442C517.397 522.305 517.572 522.173 517.752 522.045V522.046Z" fill="#FFB6B6"/>
<path d="M553.973 327.358L534.39 325.47C534.39 325.47 531.035 325.47 527.679 336.656C524.324 347.841 505.876 466.058 505.876 466.058L546.696 469.763L553.973 327.358Z" fill="#E6E6E6"/>
<path d="M264.5 132C264.5 204.624 205.403 263.5 132.5 263.5C59.5966 263.5 0.5 204.624 0.5 132C0.5 59.3763 59.5966 0.5 132.5 0.5C205.403 0.5 264.5 59.3763 264.5 132Z" stroke="#6C63FF"/>
<defs>
<linearGradient id="paint0_linear_162:42" x1="793.33" y1="652.077" x2="782.856" y2="699.117" gradientUnits="userSpaceOnUse">
<stop stop-color="#3FACFF"/>
<stop offset="1" stop-color="#00336A"/>
</linearGradient>
<linearGradient id="paint1_linear_162:42" x1="788.941" y1="657.236" x2="786.156" y2="670.684" gradientUnits="userSpaceOnUse">
<stop stop-color="#6F6F6F"/>
<stop offset="1" stop-color="#292929"/>
</linearGradient>
<linearGradient id="paint2_linear_162:42" x1="836.998" y1="716.709" x2="845.455" y2="723.805" gradientUnits="userSpaceOnUse">
<stop stop-color="#9F9F9F"/>
<stop offset="1" stop-color="#2E2E2E"/>
</linearGradient>
<linearGradient id="paint3_linear_162:42" x1="-6867.55" y1="27143.7" x2="-5987.17" y2="27328.4" gradientUnits="userSpaceOnUse">
<stop stop-color="#9F9F9F"/>
<stop offset="1" stop-color="#2E2E2E"/>
</linearGradient>
<clipPath id="clip0_162:42">
<rect width="871" height="739" fill="white" transform="translate(107 39)"/>
</clipPath>
</defs>
</svg>
