<svg width="871" height="792" viewBox="0 0 871 792" fill="none" xmlns="http://www.w3.org/2000/svg">
<g clip-path="url(#clip0_133:3)">
<path d="M840.518 309.382C796.96 365.099 714.769 377.858 646.763 358.452C624.511 351.947 603.044 343.008 582.751 331.797C570.964 325.394 559.459 318.371 548.189 310.887C545.416 309.053 542.643 307.192 539.899 305.293C538.028 304.014 536.164 302.72 534.306 301.41C511.032 285.031 488.671 267.064 466.685 249.2C411.8 204.605 355.412 158.638 287.979 137.361C274.086 132.98 256.114 130.93 247.523 142.702C240.069 152.922 244.619 167.392 250.926 178.355C274.322 218.962 316.789 244.602 359.294 264.318C401.799 284.034 446.823 300.009 483.773 328.836C520.723 357.662 548.932 403.479 541.374 449.728C534.86 489.583 502.328 521.964 464.504 536.077C426.68 550.18 384.495 548.215 345.176 539.057C305.857 529.89 268.531 513.897 230.585 500.114C207.706 491.793 177.797 486.039 162.616 505.078C149.795 521.165 157.164 546.541 172.777 559.93C188.39 573.319 209.521 577.803 229.682 581.828C292.284 594.332 354.886 606.834 417.487 619.333C436.69 623.159 456.345 627.164 473.076 637.356C489.808 647.539 503.306 665.328 502.827 684.912C502.347 704.215 488.219 721.27 470.905 729.817C453.601 738.354 433.617 739.67 414.338 738.749C342.093 735.289 134.972 620.48 85.2948 605.803C53.3737 596.382 18.473 582.542 5.01246 552.098C-11.7472 514.198 15.8317 468.344 53.477 451.035C91.1131 433.716 134.746 437.552 175.766 443.381C216.786 449.211 259.16 456.629 299.09 445.553C339.019 434.478 375.602 398.373 371.664 357.117C368.233 321.22 335.908 294.17 301.89 282.248C275.261 272.912 246.931 270.373 218.958 266.17C211.193 265.014 203.458 263.716 195.797 262.118C176.178 258.007 157.04 251.862 138.694 243.784C119.442 235.325 101.152 224.826 84.1388 212.466C70.5687 202.622 57.8872 191.607 46.2396 179.549C44.463 177.706 42.7051 175.822 40.9661 173.898C39.312 172.055 37.6762 170.175 36.0786 168.257C15.2865 143.407 -0.0728282 112.803 4.53336 81.2686C9.12945 49.8185 33.6346 23.6337 62.8111 11.0536C79.6739 3.7858 97.8623 0.53267 116.276 0.0625642C129.74 -0.206598 143.201 0.762765 156.487 2.95842C217.971 12.793 274.312 42.673 327.523 75.0256C380.725 107.378 432.574 142.89 490.409 165.953C548.245 189.026 614.081 198.795 672.753 177.932C731.425 157.078 779.626 100.176 776.76 37.9625C815.674 71.481 848.742 113.612 863.387 162.841C878.032 212.071 872.147 268.916 840.518 309.382Z" fill="#3F3D56"/>
<path d="M560.134 245.086C563.912 245.086 566.975 242.023 566.975 238.244C566.975 234.465 563.912 231.401 560.134 231.401C556.356 231.401 553.293 234.465 553.293 238.244C553.293 242.023 556.356 245.086 560.134 245.086Z" fill="#6C63FF"/>
<path d="M801.704 158.563C807.546 158.563 812.281 153.826 812.281 147.983C812.281 142.141 807.546 137.404 801.704 137.404C795.863 137.404 791.128 142.141 791.128 147.983C791.128 153.826 795.863 158.563 801.704 158.563Z" fill="#FF6584"/>
<path d="M108.012 484.727C110.17 484.727 111.92 482.977 111.92 480.818C111.92 478.659 110.17 476.909 108.012 476.909C105.853 476.909 104.104 478.659 104.104 480.818C104.104 482.977 105.853 484.727 108.012 484.727Z" fill="#FF6584"/>
<path d="M220.18 256.11C220.182 259.501 219.772 262.879 218.958 266.17C211.193 265.014 203.458 263.716 195.797 262.118C176.178 258.006 157.04 251.862 138.694 243.784C141.644 234.256 147.912 226.102 156.36 220.802C164.808 215.502 174.876 213.408 184.736 214.899C194.596 216.391 203.594 221.369 210.097 228.93C216.601 236.492 220.178 246.135 220.18 256.11Z" fill="#FF6584"/>
<path d="M734.027 220.617C736.234 220.617 738.024 218.827 738.024 216.619C738.024 214.411 736.234 212.621 734.027 212.621C731.82 212.621 730.03 214.411 730.03 216.619C730.03 218.827 731.82 220.617 734.027 220.617Z" fill="#F0F0F0"/>
<path d="M368.381 660.635C370.589 660.635 372.378 658.845 372.378 656.638C372.378 654.43 370.589 652.64 368.381 652.64C366.174 652.64 364.385 654.43 364.385 656.638C364.385 658.845 366.174 660.635 368.381 660.635Z" fill="#F0F0F0"/>
<path d="M425.719 716.108C427.927 716.108 429.716 714.318 429.716 712.11C429.716 709.902 427.927 708.112 425.719 708.112C423.512 708.112 421.723 709.902 421.723 712.11C421.723 714.318 423.512 716.108 425.719 716.108Z" fill="#F0F0F0"/>
<path d="M71.3533 558.152C73.5606 558.152 75.3499 556.362 75.3499 554.155C75.3499 551.947 73.5606 550.157 71.3533 550.157C69.1459 550.157 67.3566 551.947 67.3566 554.155C67.3566 556.362 69.1459 558.152 71.3533 558.152Z" fill="#F0F0F0"/>
<path d="M267.806 483.876C270.013 483.876 271.802 482.086 271.802 479.878C271.802 477.67 270.013 475.88 267.806 475.88C265.598 475.88 263.809 477.67 263.809 479.878C263.809 482.086 265.598 483.876 267.806 483.876Z" fill="#F0F0F0"/>
<path d="M248.066 87.1065C250.274 87.1065 252.063 85.3167 252.063 83.1088C252.063 80.9009 250.274 79.111 248.066 79.111C245.859 79.111 244.07 80.9009 244.07 83.1088C244.07 85.3167 245.859 87.1065 248.066 87.1065Z" fill="#F0F0F0"/>
<path d="M489.637 400.197C491.844 400.197 493.633 398.407 493.633 396.199C493.633 393.991 491.844 392.201 489.637 392.201C487.429 392.201 485.64 393.991 485.64 396.199C485.64 398.407 487.429 400.197 489.637 400.197Z" fill="#F0F0F0"/>
<path d="M519.715 469.772C521.923 469.772 523.712 467.983 523.712 465.775C523.712 463.567 521.923 461.777 519.715 461.777C517.508 461.777 515.719 463.567 515.719 465.775C515.719 467.983 517.508 469.772 519.715 469.772Z" fill="#F0F0F0"/>
<path d="M159.458 95.8698C159.487 116.055 154.719 135.958 145.547 153.937C144.334 156.307 143.049 158.635 141.693 160.923C128.26 183.613 108.164 201.61 84.1386 212.465C70.5686 202.621 57.8871 191.607 46.2395 179.549C44.4629 177.706 42.705 175.822 40.966 173.898C39.3119 172.055 37.6761 170.175 36.0785 168.257C15.2864 143.407 -0.0729294 112.803 4.53326 81.2684C9.12934 49.8183 33.6345 23.6334 62.811 11.0533C79.6738 3.7855 97.8622 0.532422 116.276 0.0623169C130.674 12.7806 142.024 28.5782 149.485 46.2831C150.425 48.5114 151.29 50.7679 152.107 53.0526C156.986 66.8 159.472 81.2821 159.458 95.8698Z" fill="#6C63FF"/>
<path d="M217.735 102.451C217.735 122.036 198.617 140.201 163.895 153.618C156.948 156.307 149.513 158.742 141.693 160.923C112.422 169.084 77.5869 173.606 40.966 173.898C39.3119 172.055 37.6762 170.175 36.0785 168.257C36.4732 168.266 36.8679 168.266 37.2626 168.266C77.0325 168.266 114.763 163.226 145.547 153.937C151.233 152.217 156.685 150.355 161.864 148.352C193.785 136.026 212.096 119.29 212.096 102.451C212.096 85.6121 193.785 68.8857 161.864 56.5502C158.706 55.3279 155.454 54.162 152.107 53.0526C151.29 50.7679 150.425 48.5114 149.485 46.2831C154.485 47.8438 159.289 49.5111 163.895 51.285C198.617 64.7018 217.735 82.8761 217.735 102.451Z" fill="#E4E4E4"/>
<path d="M43.1544 32.5743C45.3617 32.5743 47.1511 30.7844 47.1511 28.5765C47.1511 26.3686 45.3617 24.5788 43.1544 24.5788C40.9471 24.5788 39.1577 26.3686 39.1577 28.5765C39.1577 30.7844 40.9471 32.5743 43.1544 32.5743Z" fill="#F0F0F0"/>
<path d="M126.811 57.96C129.018 57.96 130.808 56.1701 130.808 53.9622C130.808 51.7543 129.018 49.9645 126.811 49.9645C124.604 49.9645 122.814 51.7543 122.814 53.9622C122.814 56.1701 124.604 57.96 126.811 57.96Z" fill="#F0F0F0"/>
<path d="M83.5728 133.268C105.038 133.268 122.439 115.862 122.439 94.3913C122.439 72.9206 105.038 55.5151 83.5728 55.5151C62.1077 55.5151 44.7068 72.9206 44.7068 94.3913C44.7068 115.862 62.1077 133.268 83.5728 133.268Z" fill="#F0F0F0"/>
<path opacity="0.3" d="M801.33 300.149C792.607 302.726 773.376 304.625 752.227 305.791C731.087 306.947 707.898 307.455 685 307.944C644.921 308.809 604.844 309.677 564.77 310.548C559.262 310.67 553.735 310.783 548.189 310.887C545.416 309.053 542.643 307.192 539.899 305.292C544.815 305.321 549.731 305.292 554.609 305.198C575.448 304.785 593.091 303.158 613.187 302.387C644.112 301.193 677.5 302.133 709.731 302.613C741.962 303.102 778.686 302.923 801.33 300.149Z" fill="#F0F0F0"/>
<path opacity="0.3" d="M186.191 596.533L58.4307 490.072L182.548 600.797C182.788 601.202 183.122 601.544 183.521 601.794C183.919 602.045 184.372 602.196 184.841 602.237C185.31 602.277 185.782 602.205 186.218 602.026C186.654 601.848 187.04 601.568 187.346 601.21C187.652 600.852 187.868 600.426 187.977 599.967C188.085 599.509 188.083 599.032 187.97 598.574C187.857 598.117 187.637 597.694 187.328 597.339C187.018 596.983 186.629 596.707 186.191 596.533H186.191Z" fill="#F0F0F0"/>
<path d="M89.2125 193.35C91.4198 193.35 93.2092 191.561 93.2092 189.353C93.2092 187.145 91.4198 185.355 89.2125 185.355C87.0052 185.355 85.2158 187.145 85.2158 189.353C85.2158 191.561 87.0052 193.35 89.2125 193.35Z" fill="#F0F0F0"/>
<path opacity="0.1" d="M425.662 253.306L431.135 257.412L433.871 238.252L425.662 253.306Z" fill="black"/>
<path opacity="0.1" d="M311.425 236.93L312.676 253.881L352.371 274.722L317.065 251.034L311.425 236.93Z" fill="black"/>
<path opacity="0.1" d="M310.671 288.09L356.543 308.386L309.396 299.17L310.671 288.09Z" fill="black"/>
<path d="M608.399 583.69C608.033 584.625 607.959 585.347 608.242 585.716L608.32 585.802C609.219 586.603 612.261 584.602 615.111 581.33C617.962 578.059 619.549 574.759 618.648 573.958C618.308 573.657 617.667 573.752 616.844 574.163C615.484 574.846 613.632 576.391 611.857 578.428C610.19 580.342 608.957 582.263 608.399 583.69Z" fill="#0C70BA"/>
<path d="M614.155 579.559L623.937 589.233L622.644 590.574L612.862 580.899C612.817 580.666 612.842 580.424 612.934 580.204C613.026 579.984 613.181 579.796 613.379 579.665C613.617 579.534 613.893 579.496 614.155 579.559V579.559Z" fill="#8CCDF4"/>
<path d="M606.594 583.897L608.242 585.715C607.959 585.347 608.033 584.625 608.399 583.69C608.958 582.263 610.191 580.34 611.857 578.428C613.632 576.39 615.484 574.846 616.845 574.163C617.667 573.752 618.316 573.657 618.648 573.958L617.007 572.158L616.92 572.06C616.021 571.258 612.979 573.26 610.129 576.53C607.279 579.8 605.697 583.095 606.594 583.897Z" fill="#FCFDFF"/>
<path d="M772.961 622.224C772.599 623.488 772.106 624.305 771.52 624.469L771.369 624.499C769.793 624.633 768.194 620.139 767.794 614.475C767.394 608.811 768.354 604.1 769.93 603.966C770.525 603.915 771.122 604.522 771.657 605.601C772.542 607.385 773.259 610.458 773.506 613.989C773.734 617.304 773.502 620.289 772.961 622.224Z" fill="#0C70BA"/>
<path d="M770.147 613.443L752.224 615.901L752.516 618.321L770.433 615.876C770.611 615.715 770.747 615.512 770.832 615.286C770.916 615.061 770.945 614.818 770.916 614.58C770.887 614.342 770.802 614.115 770.667 613.919C770.532 613.723 770.352 613.564 770.142 613.455L770.147 613.443Z" fill="#8CCDF4"/>
<path d="M774.686 623.857L771.518 624.468C772.106 624.305 772.601 623.489 772.959 622.222C773.503 620.288 773.735 617.304 773.502 613.988C773.255 610.456 772.538 607.383 771.653 605.599C771.118 604.521 770.521 603.914 769.926 603.965L773.074 603.358L773.244 603.327C774.823 603.192 776.424 607.679 776.821 613.348C777.217 619.017 776.261 623.723 774.686 623.857Z" fill="#A8D9E5"/>
<path d="M710.348 514.838L709.085 514.476L693.399 568.374L694.662 568.736L710.348 514.838Z" fill="#8CCDF4"/>
<path d="M714.425 521.181C713.735 522.533 712.635 523.628 711.29 524.303C709.944 524.978 708.424 525.197 706.958 524.928C705.491 524.658 704.156 523.913 703.152 522.806C702.148 521.698 701.529 520.287 701.386 518.782C701.244 517.277 701.586 515.759 702.362 514.456C703.138 513.152 704.306 512.132 705.692 511.548C707.077 510.964 708.607 510.847 710.051 511.214C711.495 511.582 712.778 512.415 713.706 513.588C714.538 514.639 715.048 515.915 715.175 517.262C715.303 518.61 715.042 519.971 714.425 521.181Z" fill="#8CCDF4"/>
<path d="M713.462 519.54C712.928 520.586 712.147 521.482 711.189 522.149C710.23 522.816 709.126 523.232 707.976 523.359C706.826 523.486 705.666 523.32 704.603 522.877C703.539 522.433 702.606 521.726 701.887 520.819C701.24 519.263 701.175 517.515 701.702 515.899C702.23 514.282 703.314 512.906 704.756 512.024C706.198 511.143 707.898 510.816 709.544 511.104C711.19 511.391 712.67 512.275 713.71 513.59C714.102 514.534 714.283 515.556 714.24 516.585C714.197 517.613 713.932 518.622 713.462 519.54V519.54Z" fill="#E8F2F9"/>
<path d="M761.375 646.319C756.129 643.389 750.138 640.453 743.519 637.568C737.085 634.763 730.058 632.016 722.548 629.376C710.699 625.211 697.648 621.323 683.825 617.936C679.836 616.958 675.886 616.047 671.976 615.203C651.913 610.866 633.142 608.293 617.243 607.465C612.938 607.241 608.848 607.149 604.995 607.18C604.982 607.176 604.97 607.171 604.959 607.165C605.24 606.423 605.531 605.685 605.832 604.951C610.771 592.916 618.432 582.198 628.192 573.671C637.951 565.143 649.532 559.049 661.99 555.884V555.884C663.822 555.415 665.671 555.011 667.54 554.673C669.232 554.365 670.934 554.111 672.645 553.91C686.133 552.337 699.751 554.216 712.25 559.376C713.574 559.92 714.876 560.496 716.156 561.102C717.954 561.954 719.705 562.865 721.41 563.836C732.537 570.155 741.986 579.087 748.975 589.893C759.722 606.48 764.127 626.528 761.375 646.329L761.375 646.319Z" fill="#E8F2F9"/>
<path d="M761.327 646.69C756.514 646.712 751.328 646.536 745.832 646.163C727.623 644.924 706.007 641.519 683.192 635.928C651.229 628.097 623.382 617.572 604.995 607.18C625.824 606.999 653.779 610.575 683.826 617.936C697.648 621.323 710.699 625.21 722.548 629.376C737.784 634.731 751.03 640.541 761.375 646.319C761.359 646.442 761.34 646.565 761.327 646.69Z" fill="url(#paint0_linear_133:3)"/>
<path d="M678.741 632.214C688.579 634.779 697.04 635.03 697.64 632.775C698.239 630.519 690.751 626.612 680.913 624.047C671.075 621.482 662.614 621.231 662.014 623.486C661.414 625.741 668.903 629.649 678.741 632.214Z" fill="url(#paint1_linear_133:3)"/>
<path d="M675.716 644.248C675.165 644.091 674.624 643.925 674.099 643.754C669.115 642.135 665.453 640.012 665.669 638.771L665.695 638.67L669.347 625.133C669.572 623.84 673.948 623.968 679.309 625.388C679.622 625.471 679.938 625.557 680.26 625.649C686.052 627.306 690.546 629.756 690.307 631.128L690.281 631.23L686.63 644.764C686.392 646.134 681.505 645.904 675.716 644.248Z" fill="#7C7C7C"/>
<path opacity="0.31" d="M676.494 645.594C675.943 645.437 675.402 645.27 674.877 645.1L679.851 625.494C680.164 625.576 680.481 625.661 680.803 625.755C686.594 627.411 690.545 629.759 690.307 631.128L690.281 631.23L686.63 644.764C686.392 646.134 682.283 647.249 676.494 645.594Z" fill="#636363"/>
<path d="M755.857 666.608C755.27 668.037 754.647 669.442 753.988 670.825C748.113 667.535 741.296 664.238 733.708 661.02C727.465 658.37 720.696 655.773 713.499 653.281C702.068 649.321 689.557 645.621 676.337 642.384C652.859 636.632 630.662 633.185 612.142 632.042C607.765 631.771 603.605 631.629 599.662 631.616C599.755 630.138 599.89 628.657 600.066 627.176C604.005 627.157 608.194 627.273 612.597 627.521C631.39 628.573 654.107 632.04 678.169 637.937C691.249 641.139 703.639 644.795 714.972 648.711C722.292 651.237 729.176 653.873 735.518 656.563C743.163 659.805 750.025 663.129 755.926 666.439C755.903 666.495 755.88 666.552 755.857 666.608Z" fill="#0C70BA"/>
<path d="M753.99 670.819C748.002 683.443 738.954 694.353 727.702 702.516C725.682 703.983 723.601 705.354 721.459 706.629C701.26 718.675 676.299 721.891 652.96 713.545C651.782 713.125 650.609 712.674 649.441 712.193C643.805 709.882 638.452 706.931 633.482 703.399C610.222 685.097 611.096 645.529 612.139 632.041C630.662 633.185 652.859 636.632 676.337 642.378C689.556 645.614 702.067 649.314 713.499 653.275C720.696 655.766 727.462 658.37 733.708 661.013C741.298 664.233 748.115 667.53 753.99 670.819Z" fill="#E8F2F9"/>
<g style="mix-blend-mode:screen">
<g style="mix-blend-mode:screen">
<path d="M617.3 607.437L617.239 607.463C612.934 607.24 608.844 607.147 604.991 607.178C604.978 607.174 604.966 607.169 604.955 607.163C605.236 606.421 605.527 605.683 605.828 604.949C610.767 592.914 618.428 582.196 628.188 573.669C637.947 565.142 649.528 559.047 661.986 555.883V555.883C663.818 555.413 665.667 555.009 667.536 554.671C629.633 562.605 617.3 607.437 617.3 607.437Z" fill="#FCFDFF"/>
</g>
<g style="mix-blend-mode:screen" opacity="0.2">
<path d="M612.141 632.042C607.764 631.771 603.604 631.629 599.661 631.616C599.754 630.138 599.889 628.657 600.066 627.176C604.004 627.157 608.193 627.273 612.596 627.521C612.539 627.906 612.337 629.516 612.141 632.042Z" fill="#FCFDFF"/>
</g>
<g style="mix-blend-mode:screen">
<path d="M633.482 703.399C632.678 702.827 631.885 702.242 631.104 701.643C623.636 695.895 617.234 688.856 612.187 680.843C610.808 678.659 609.537 676.414 608.373 674.109C604.222 665.895 601.472 657.014 600.24 647.837C599.517 642.468 599.325 637.033 599.665 631.611C603.601 631.621 607.761 631.763 612.145 632.037C611.095 645.53 610.216 685.095 633.482 703.399Z" fill="#FCFDFF"/>
</g>
</g>
<path opacity="0.21" d="M755.857 666.608C755.269 668.037 754.646 669.442 753.988 670.825C748 683.449 738.952 694.358 727.7 702.522C725.68 703.988 723.599 705.36 721.457 706.635C701.257 718.681 676.297 721.897 652.958 713.55C701.855 724.512 727.077 676.219 733.709 661.02C734.924 658.241 735.514 656.568 735.514 656.568C743.159 659.81 750.022 663.134 755.923 666.444C755.903 666.495 755.88 666.552 755.857 666.608Z" fill="#0C70BA"/>
<path opacity="0.21" d="M743.519 637.568C743.519 637.568 763.422 594.522 716.155 561.092C717.953 561.943 719.704 562.855 721.409 563.825C732.537 570.145 741.985 579.077 748.974 589.883C759.721 606.47 764.126 626.518 761.375 646.319C756.129 643.389 750.138 640.452 743.519 637.568Z" fill="#0C70BA"/>
<path d="M741.228 616.673C740.921 618.09 740.32 619.428 739.463 620.597C738.607 621.766 737.516 622.739 736.263 623.451C735.011 624.163 733.626 624.596 732.201 624.723C730.777 624.849 729.347 624.666 728.006 624.184C715.148 619.543 700.75 615.222 685.411 611.524C669.53 607.693 654.236 604.916 640.271 603.186C638.832 603.009 637.453 602.517 636.228 601.744C635.003 600.971 633.963 599.935 633.178 598.708C632.393 597.481 631.883 596.092 631.684 594.638C631.484 593.184 631.599 591.7 632.021 590.287L633.478 585.427C634.737 580.749 637.648 576.683 641.654 574.008C645.661 571.333 650.482 570.236 655.193 570.928C667.07 572.656 679.76 575.098 692.851 578.255C706.014 581.43 718.481 585.064 729.88 588.961C734.358 590.497 738.101 593.655 740.397 597.834C742.693 602.013 743.381 606.921 742.332 611.625L742.076 612.773L741.228 616.673Z" fill="#2E1E4A"/>
<path d="M650.503 585.12C650.503 585.12 657.358 573.388 659.904 586.827" stroke="#00F9DC" stroke-width="3.16667" stroke-miterlimit="10" stroke-linecap="round"/>
<path d="M724.798 601.275C724.798 601.275 722.446 587.962 715.363 599.746" stroke="#00F9DC" stroke-width="3.16667" stroke-miterlimit="10" stroke-linecap="round"/>
<path d="M697.471 600.929C696.919 604.486 690.689 606.333 685.445 605.08C679.785 603.728 677.284 596.216 678.654 593.195" stroke="#00F9DC" stroke-width="3.16667" stroke-miterlimit="10" stroke-linecap="round"/>
<path d="M680.341 666.595C679.222 669.315 677.183 671.55 674.593 672.895C672.004 674.241 669.036 674.606 666.229 673.926C663.423 673.246 660.963 671.565 659.297 669.189C657.63 666.812 656.869 663.898 657.15 660.976C657.43 658.053 658.735 655.316 660.827 653.261C662.919 651.206 665.66 649.971 668.55 649.778C671.441 649.586 674.291 650.45 676.581 652.213C678.872 653.976 680.452 656.521 681.034 659.386C681.523 661.796 681.281 664.308 680.341 666.595V666.595Z" fill="#565656"/>
<path d="M680.147 665.301C679.075 667.678 677.196 669.594 674.857 670.696C672.518 671.798 669.876 672.012 667.417 671.299C664.958 670.586 662.847 668.993 661.474 666.814C660.101 664.635 659.557 662.017 659.942 659.44C660.328 656.864 661.617 654.504 663.573 652.794C665.528 651.083 668.019 650.138 670.585 650.133C673.152 650.127 675.623 651.061 677.542 652.762C679.461 654.464 680.7 656.819 681.031 659.393C681.22 661.4 680.916 663.429 680.147 665.301V665.301Z" fill="#7C7C7C"/>
<path d="M672.764 655.587C674.304 656.22 675.525 657.451 676.158 659.008C676.791 660.564 676.784 662.32 676.139 663.889" stroke="#3A3A3A" stroke-width="2.11111" stroke-miterlimit="10" stroke-linecap="round"/>
<path d="M664.697 666.493C663.833 665.608 663.248 664.481 663.016 663.253C662.784 662.026 662.915 660.751 663.393 659.589" stroke="#3A3A3A" stroke-width="2.11111" stroke-miterlimit="10" stroke-linecap="round"/>
<path d="M738.87 685.168C742.813 680.256 744.391 674.947 742.395 673.311C740.399 671.675 735.584 674.331 731.641 679.243C727.698 684.155 726.12 689.463 728.116 691.1C730.112 692.736 734.927 690.08 738.87 685.168Z" fill="url(#paint2_linear_133:3)"/>
<path d="M740.558 678.434C740.558 678.434 733.488 679.645 732.211 688.289" stroke="#4C4C4C" stroke-width="2.11111" stroke-miterlimit="10" stroke-linecap="round"/>
<path d="M610.703 662.202C613.338 662.098 615.341 656.815 615.176 650.402C615.011 643.988 612.741 638.874 610.106 638.978C607.471 639.083 605.469 644.366 605.634 650.779C605.799 657.192 608.068 662.307 610.703 662.202Z" fill="url(#paint3_linear_133:3)"/>
<path d="M608.431 644.261C608.431 644.261 613.427 649.585 609.114 657.393" stroke="#4C4C4C" stroke-width="2.11111" stroke-miterlimit="10" stroke-linecap="round"/>
<path opacity="0.41" d="M667.613 666.196C669.806 667.097 672.329 666.017 673.247 663.782C674.166 661.548 673.132 659.006 670.939 658.104C668.745 657.203 666.223 658.283 665.304 660.517C664.386 662.752 665.42 665.294 667.613 666.196Z" fill="#BCBCBC"/>
</g>
<path d="M530.298 361.414L549.313 359.177L556.024 417.341L573.16 497.662C575.543 498.823 577.487 500.722 578.703 503.078C579.92 505.433 580.343 508.119 579.909 510.734C579.476 513.349 578.21 515.754 576.299 517.592C574.388 519.429 571.935 520.601 569.305 520.931C566.675 521.262 564.008 520.734 561.702 519.427C559.396 518.119 557.574 516.102 556.507 513.675C555.44 511.249 555.186 508.542 555.781 505.959C556.376 503.376 557.79 501.054 559.812 499.34L542.602 452.016L530.298 361.414Z" fill="#FFB6B6"/>
<path d="M502.674 776.075H518.34L525.794 715.645H502.672L502.674 776.075Z" fill="#FFB6B6"/>
<path d="M498.679 791.258H549.195V790.62C549.194 785.405 547.123 780.404 543.436 776.717C539.749 773.03 534.748 770.958 529.534 770.958H498.679V791.258Z" fill="#2F2E41"/>
<path d="M382.441 767.53L397.824 770.5L416.602 712.582L393.895 708.198L382.441 767.53Z" fill="#FFB6B6"/>
<path d="M375.643 781.684L425.243 791.262L425.364 790.634C426.352 785.514 425.266 780.211 422.345 775.891C419.424 771.572 414.907 768.589 409.787 767.6L379.493 761.75L375.643 781.684Z" fill="#2F2E41"/>
<path d="M527.24 266.099L518.137 283.564L449.96 268.527L457.429 234.666C463.341 207.863 487.039 188.507 513.842 194.418C540.644 200.33 553.15 226.526 547.238 253.329L536.252 287.556L525.136 285.104L527.24 266.099Z" fill="#2F2E41"/>
<path d="M551.55 458.729C551.55 458.729 558.262 492.285 549.313 541.501C540.365 590.717 538.128 611.97 538.128 611.97C538.128 611.97 544.839 619.799 540.365 624.274C535.891 628.748 540.365 637.696 540.365 637.696L530.298 746.195L495.623 740.603L500.097 638.815C500.097 638.815 495.623 629.866 497.86 627.629C500.097 625.392 495.623 611.97 495.623 611.97L490.03 505.708L455.355 622.037C455.355 622.037 458.711 626.511 455.355 629.866C452 633.222 445.288 650 445.288 650L422.917 728.299L387.124 721.587L407.258 632.104C407.258 632.104 405.021 626.511 408.376 623.155C409.355 622.129 410.07 620.88 410.46 619.516C410.849 618.152 410.902 616.714 410.613 615.325C410.613 615.325 407.258 611.97 411.732 607.495C416.206 603.021 418.443 585.124 418.443 585.124C418.443 585.124 421.799 465.44 432.984 458.729C444.17 452.017 551.55 458.729 551.55 458.729Z" fill="#2F2E41"/>
<path d="M500.973 273.651C518.27 273.651 532.292 259.629 532.292 242.332C532.292 225.035 518.27 211.013 500.973 211.013C483.676 211.013 469.654 225.035 469.654 242.332C469.654 259.629 483.676 273.651 500.973 273.651Z" fill="#FFB6B6"/>
<path d="M456.835 282.423C456.835 282.423 434.102 279.76 427.39 286.471L434.102 421.815C434.102 421.815 429.627 425.171 431.865 433.001C433.163 438.14 433.163 443.521 431.865 448.661C431.865 448.661 425.153 456.49 428.509 459.846C431.865 463.202 552.668 460.965 552.668 460.965C552.668 460.965 557.142 453.135 550.431 448.661C543.719 444.186 547.075 431.882 547.075 431.882C547.075 431.882 549.312 428.527 543.719 422.934C538.127 417.341 533.652 371.481 533.652 371.481L548.194 315.553C548.194 315.553 533.556 299.031 516.826 297.785L456.835 282.423Z" fill="#E6E6E6"/>
<path d="M530.863 316.322L548.192 315.552C548.192 315.552 558.259 335.686 559.378 353.583L565.538 420.347L525.821 426.289L530.863 316.322Z" fill="#E6E6E6"/>
<path d="M527.806 243.886L539.439 228.917C540.125 225.766 539.535 222.471 537.799 219.753C536.064 217.035 533.322 215.114 530.175 214.411L486.225 204.717C483.073 204.031 479.778 204.62 477.06 206.356C474.342 208.091 472.421 210.833 471.717 213.98L471.693 214.092L474.84 232.167L475.393 232.068C502.669 227.205 510.438 228.916 527.359 243.507L527.806 243.886Z" fill="#2F2E41"/>
<path d="M410.752 483.046L412.849 394.971L415.086 332.333L441.931 335.688L427.514 485.4C429.031 487.304 429.948 489.614 430.151 492.039C430.355 494.464 429.834 496.895 428.656 499.024C427.477 501.153 425.694 502.885 423.531 504.001C421.369 505.117 418.924 505.566 416.506 505.292C414.088 505.018 411.805 504.034 409.947 502.462C408.088 500.891 406.738 498.804 406.065 496.466C405.393 494.127 405.429 491.641 406.17 489.323C406.91 487.005 408.321 484.958 410.224 483.442C410.397 483.305 410.572 483.173 410.752 483.045V483.046Z" fill="#FFB6B6"/>
<path d="M446.973 288.358L427.39 286.47C427.39 286.47 424.035 286.47 420.679 297.656C417.324 308.841 398.876 427.058 398.876 427.058L439.696 430.763L446.973 288.358Z" fill="#E6E6E6"/>
<defs>
<linearGradient id="paint0_linear_133:3" x1="686.33" y1="613.077" x2="675.856" y2="660.117" gradientUnits="userSpaceOnUse">
<stop stop-color="#3FACFF"/>
<stop offset="1" stop-color="#00336A"/>
</linearGradient>
<linearGradient id="paint1_linear_133:3" x1="681.941" y1="618.236" x2="679.156" y2="631.684" gradientUnits="userSpaceOnUse">
<stop stop-color="#6F6F6F"/>
<stop offset="1" stop-color="#292929"/>
</linearGradient>
<linearGradient id="paint2_linear_133:3" x1="729.998" y1="677.709" x2="738.455" y2="684.805" gradientUnits="userSpaceOnUse">
<stop stop-color="#9F9F9F"/>
<stop offset="1" stop-color="#2E2E2E"/>
</linearGradient>
<linearGradient id="paint3_linear_133:3" x1="-6974.55" y1="27104.7" x2="-6094.17" y2="27289.4" gradientUnits="userSpaceOnUse">
<stop stop-color="#9F9F9F"/>
<stop offset="1" stop-color="#2E2E2E"/>
</linearGradient>
<clipPath id="clip0_133:3">
<rect width="871" height="739" fill="white"/>
</clipPath>
</defs>
</svg>
